<?xml version="1.0" encoding="UTF-8" standalone="no"?>
<svg
   fill="none"
   height="32"
   viewBox="0 0 31 32"
   width="31"
   version="1.1"
   id="svg17"
   sodipodi:docname="add_client_simple.svg"
   inkscape:version="1.1 (c68e22c387, 2021-05-23)"
   xmlns:inkscape="http://www.inkscape.org/namespaces/inkscape"
   xmlns:sodipodi="http://sodipodi.sourceforge.net/DTD/sodipodi-0.dtd"
   xmlns="http://www.w3.org/2000/svg"
   xmlns:svg="http://www.w3.org/2000/svg">
  <defs
     id="defs21" />
  <sodipodi:namedview
     id="namedview19"
     pagecolor="#ffffff"
     bordercolor="#666666"
     borderopacity="1.0"
     inkscape:pageshadow="2"
     inkscape:pageopacity="0.0"
     inkscape:pagecheckerboard="0"
     showgrid="false"
     inkscape:zoom="23.96875"
     inkscape:cx="15.499348"
     inkscape:cy="16"
     inkscape:window-width="1920"
     inkscape:window-height="1017"
     inkscape:window-x="1272"
     inkscape:window-y="-8"
     inkscape:window-maximized="1"
     inkscape:current-layer="svg17" />
  <path
     style="color:#000000;fill:#2d2e32;stroke-linecap:round;stroke-linejoin:round;stroke-miterlimit:10;-inkscape-stroke:none"
     d="M 12.978516,20.013672 C 7.8600403,20.119145 4.3954278,21.001301 2.4375,21.697266 1.0375071,22.194308 0,23.400118 0,24.833984 v 5.179688 a 1.0001,1.0001 0 0 0 1,1 h 13 a 1,1 0 0 0 1,-1 1,1 0 0 0 -1,-1 H 2 V 24.833984 C 2,24.369252 2.3414169,23.853988 3.1074219,23.582031 4.8674904,22.956397 8.1139697,22.112845 13.021484,22.011719 A 1,1 0 0 0 14,20.992187 1,1 0 0 0 12.978516,20.013672 Z"
     id="path9" />
  <path
     style="color:#000000;fill:#2d2e32;stroke-linecap:square;stroke-miterlimit:10;-inkscape-stroke:none"
     d="M 14,0 C 9.5935664,0 6,3.5935664 6,8 v 2 c 0,4.406434 3.5935664,8 8,8 4.406434,0 8,-3.593566 8,-8 V 8 C 22,3.5935664 18.406434,0 14,0 Z m 0,2 c 3.325559,0 6,2.6744413 6,6 v 2 c 0,3.325559 -2.674441,6 -6,6 -3.325559,0 -6,-2.674441 -6,-6 V 8 C 8,4.6744413 10.674441,2 14,2 Z"
     id="path11" />
  <path
     style="color:#000000;fill:#2d2e32;stroke-linecap:round;stroke-linejoin:round;stroke-miterlimit:10;-inkscape-stroke:none;fill-opacity:1"
     d="m 24,18 a 1,1 0 0 0 -1,1 v 12 a 1,1 0 0 0 1,1 1,1 0 0 0 1,-1 V 19 a 1,1 0 0 0 -1,-1 z"
     id="path13" />
  <path
     style="color:#000000;fill:#2d2e32;stroke-linecap:round;stroke-linejoin:round;stroke-miterlimit:10;-inkscape-stroke:none;fill-opacity:1"
     d="m 18,24 a 1,1 0 0 0 -1,1 1,1 0 0 0 1,1 h 12 a 1,1 0 0 0 1,-1 1,1 0 0 0 -1,-1 z"
     id="path15" />
</svg>
