<?xml version="1.0" encoding="UTF-8" standalone="no"?>
<svg
   fill="none"
   height="32"
   viewBox="0 0 31 32"
   width="31"
   version="1.1"
   id="svg148"
   sodipodi:docname="client_deposit.svg"
   inkscape:version="1.1 (c68e22c387, 2021-05-23)"
   xmlns:inkscape="http://www.inkscape.org/namespaces/inkscape"
   xmlns:sodipodi="http://sodipodi.sourceforge.net/DTD/sodipodi-0.dtd"
   xmlns="http://www.w3.org/2000/svg"
   xmlns:svg="http://www.w3.org/2000/svg">
  <defs
     id="defs152" />
  <sodipodi:namedview
     id="namedview150"
     pagecolor="#ffffff"
     bordercolor="#666666"
     borderopacity="1.0"
     inkscape:pageshadow="2"
     inkscape:pageopacity="0.0"
     inkscape:pagecheckerboard="0"
     showgrid="false"
     inkscape:zoom="23.53125"
     inkscape:cx="15.49004"
     inkscape:cy="16"
     inkscape:window-width="1284"
     inkscape:window-height="1003"
     inkscape:window-x="1676"
     inkscape:window-y="107"
     inkscape:window-maximized="0"
     inkscape:current-layer="svg148" />
  <path
     style="color:#000000;fill:#2d2e32;stroke-linecap:round;stroke-linejoin:round;stroke-miterlimit:10;-inkscape-stroke:none"
     d="M 12.978516,20.013672 C 7.8600403,20.119145 4.3954278,21.001301 2.4375,21.697266 1.0375071,22.194308 0,23.400118 0,24.833984 v 5.179688 a 1.0001,1.0001 0 0 0 1,1 h 13 a 1,1 0 0 0 1,-1 1,1 0 0 0 -1,-1 H 2 V 24.833984 C 2,24.369252 2.3414169,23.853988 3.1074219,23.582031 4.8674904,22.956397 8.1139697,22.112845 13.021484,22.011719 A 1,1 0 0 0 14,20.992187 1,1 0 0 0 12.978516,20.013672 Z"
     id="path138" />
  <path
     style="color:#000000;fill:#2d2e32;stroke-linecap:square;stroke-miterlimit:10;-inkscape-stroke:none"
     d="M 14,0 C 9.5935664,0 6,3.5935664 6,8 v 2 c 0,4.406434 3.5935664,8 8,8 4.406434,0 8,-3.593566 8,-8 V 8 C 22,3.5935664 18.406434,0 14,0 Z m 0,2 c 3.325559,0 6,2.6744413 6,6 v 2 c 0,3.325559 -2.674441,6 -6,6 -3.325559,0 -6,-2.674441 -6,-6 V 8 C 8,4.6744413 10.674441,2 14,2 Z"
     id="path140" />
  <path
     style="color:#000000;fill:#0277e7;stroke-linecap:round;stroke-linejoin:round;stroke-miterlimit:10;-inkscape-stroke:none"
     d="m 18,19 a 1,1 0 0 0 -1,1 v 4 c 0,1.368833 1.042796,2.38175 2.310547,3.015625 C 20.578298,27.6495 22.207918,28 24,28 25.792082,28 27.421702,27.6495 28.689453,27.015625 29.957204,26.38175 31,25.368833 31,24 v -4 a 1,1 0 0 0 -1,-1 1,1 0 0 0 -1,1 v 4 c 0,0.288166 -0.301331,0.774689 -1.205078,1.226562 C 26.891175,25.678436 25.521915,26 24,26 22.478085,26 21.108825,25.678436 20.205078,25.226562 19.301331,24.774689 19,24.288166 19,24 v -4 a 1,1 0 0 0 -1,-1 z"
     id="path142" />
  <path
     style="color:#000000;fill:#0277e7;stroke-linecap:round;stroke-linejoin:round;stroke-miterlimit:10;-inkscape-stroke:none"
     d="m 18,23 a 1,1 0 0 0 -1,1 v 4 c 0,1.368833 1.042796,2.38175 2.310547,3.015625 C 20.578298,31.6495 22.207918,32 24,32 25.792082,32 27.421702,31.6495 28.689453,31.015625 29.957204,30.38175 31,29.368833 31,28 v -4 a 1,1 0 0 0 -1,-1 1,1 0 0 0 -1,1 v 4 c 0,0.288166 -0.301331,0.774689 -1.205078,1.226562 C 26.891175,29.678436 25.521915,30 24,30 22.478085,30 21.108825,29.678436 20.205078,29.226562 19.301331,28.774689 19,28.288166 19,28 v -4 a 1,1 0 0 0 -1,-1 z"
     id="path144" />
  <path
     style="color:#000000;fill:#0277e7;stroke-linecap:round;stroke-linejoin:round;stroke-miterlimit:10;-inkscape-stroke:none"
     d="m 24,16 c -1.791954,0 -3.421685,0.350498 -4.689453,0.984375 C 18.042778,17.618252 17,18.631124 17,20 c 0,1.368876 1.042778,2.381748 2.310547,3.015625 C 20.578315,23.649502 22.208046,24 24,24 25.791954,24 27.421685,23.649502 28.689453,23.015625 29.957222,22.381748 31,21.368876 31,20 31,18.631124 29.957222,17.618252 28.689453,16.984375 27.421685,16.350498 25.791954,16 24,16 Z m 0,2 c 1.521743,0 2.891118,0.321541 3.794922,0.773437 C 28.698726,19.225334 29,19.711977 29,20 29,20.288023 28.698726,20.774666 27.794922,21.226562 26.891118,21.678459 25.521743,22 24,22 22.478257,22 21.108882,21.678459 20.205078,21.226562 19.301274,20.774666 19,20.288023 19,20 19,19.711977 19.301274,19.225334 20.205078,18.773437 21.108882,18.321541 22.478257,18 24,18 Z"
     id="path146" />
</svg>
