<?xml version="1.0" encoding="UTF-8" standalone="no"?>
<svg
   fill="none"
   height="18"
   viewBox="0 0 24 18"
   width="24"
   version="1.1"
   id="svg291"
   sodipodi:docname="control_simple.svg"
   inkscape:version="1.1 (c68e22c387, 2021-05-23)"
   xmlns:inkscape="http://www.inkscape.org/namespaces/inkscape"
   xmlns:sodipodi="http://sodipodi.sourceforge.net/DTD/sodipodi-0.dtd"
   xmlns="http://www.w3.org/2000/svg"
   xmlns:svg="http://www.w3.org/2000/svg">
  <defs
     id="defs295" />
  <sodipodi:namedview
     id="namedview293"
     pagecolor="#ffffff"
     bordercolor="#666666"
     borderopacity="1.0"
     inkscape:pageshadow="2"
     inkscape:pageopacity="0.0"
     inkscape:pagecheckerboard="0"
     showgrid="false"
     inkscape:zoom="41.833333"
     inkscape:cx="11.988048"
     inkscape:cy="9"
     inkscape:window-width="1284"
     inkscape:window-height="1003"
     inkscape:window-x="1532"
     inkscape:window-y="66"
     inkscape:window-maximized="0"
     inkscape:current-layer="svg291" />
  <path
     style="color:#000000;fill:#2d2e32;stroke-linecap:round;stroke-linejoin:round;stroke-miterlimit:10;-inkscape-stroke:none"
     d="M 12,0 C 6.2284128,0 2.2023372,4.9103131 0.55664062,7.2402344 a 1.0001,1.0001 0 0 0 -0.003906,0.00391 C 0.1926938,7.7588872 0,8.3718648 0,9 c 0,0.6281352 0.1926938,1.241113 0.55273437,1.755859 a 1.0001,1.0001 0 0 0 0.003906,0.0039 C 2.2023372,13.089687 6.2284128,18 12,18 c 5.771614,0 9.797663,-4.910313 11.443359,-7.240234 a 1.0001,1.0001 0 0 0 0.0039,-0.0039 C 23.807355,10.241106 24,9.628151 24,9 24,8.371849 23.807355,7.7588939 23.447266,7.2441406 a 1.0001,1.0001 0 0 0 -0.0039,-0.00391 C 21.797663,4.9103131 17.771614,0 12,0 Z m 0,2 c 4.588062,0 8.304861,4.2654607 9.806641,6.390625 C 21.93175,8.569471 22,8.7817318 22,9 22,9.2182682 21.93175,9.430529 21.806641,9.609375 20.304861,11.734539 16.588062,16 12,16 7.4119718,16 3.6951395,11.734539 2.1933594,9.609375 2.0682604,9.4305222 2,9.2182839 2,9 2,8.7817161 2.0682604,8.5694778 2.1933594,8.390625 3.6951395,6.2654607 7.4119718,2 12,2 Z"
     id="path287" />
  <path
     style="color:#000000;fill:#2d2e32;stroke-linecap:round;stroke-linejoin:round;stroke-miterlimit:10;-inkscape-stroke:none"
     d="M 12,4 C 9.2504232,4 7,6.2504232 7,9 c 0,2.749547 2.2504111,5 5,5 2.749559,0 5,-2.250441 5,-5 0,-2.7495889 -2.250453,-5 -5,-5 z m 0,2 c 1.668649,0 3,1.3313133 3,3 0,1.668637 -1.331363,3 -3,3 C 10.331313,12 9,10.668649 9,9 9,7.3313012 10.331301,6 12,6 Z"
     id="path289" />
</svg>
