<?xml version="1.0" encoding="UTF-8" standalone="no"?>
<svg
   fill="none"
   height="24"
   viewBox="0 0 23 24"
   width="23"
   version="1.1"
   id="svg435"
   sodipodi:docname="edit_simple.svg"
   inkscape:version="1.1 (c68e22c387, 2021-05-23)"
   xmlns:inkscape="http://www.inkscape.org/namespaces/inkscape"
   xmlns:sodipodi="http://sodipodi.sourceforge.net/DTD/sodipodi-0.dtd"
   xmlns="http://www.w3.org/2000/svg"
   xmlns:svg="http://www.w3.org/2000/svg">
  <defs
     id="defs439" />
  <sodipodi:namedview
     id="namedview437"
     pagecolor="#ffffff"
     bordercolor="#666666"
     borderopacity="1.0"
     inkscape:pageshadow="2"
     inkscape:pageopacity="0.0"
     inkscape:pagecheckerboard="0"
     showgrid="false"
     inkscape:zoom="31.375"
     inkscape:cx="11.49004"
     inkscape:cy="12"
     inkscape:window-width="1920"
     inkscape:window-height="1017"
     inkscape:window-x="1272"
     inkscape:window-y="-8"
     inkscape:window-maximized="1"
     inkscape:current-layer="svg435" />
  <path
     style="color:#000000;fill:#2d2e32;stroke-linecap:round;stroke-linejoin:round;-inkscape-stroke:none"
     d="m 15.693359,0.79296875 -3.5,3.49999995 L 1.6933594,14.792969 a 1.0001,1.0001 0 0 0 -0.2734375,0.511719 l -1.40039065,6.999999 a 1.0001,1.0001 0 0 0 1.17578125,1.175782 l 7,-1.400391 a 1.0001,1.0001 0 0 0 0.5117188,-0.273437 l 10.4999997,-10.5 3.5,-3.5000004 a 1.0001,1.0001 0 0 0 0,-1.4140625 L 17.107422,0.79296875 a 1.0001,1.0001 0 0 0 -1.414063,0 z M 16.400391,2.9140625 20.585937,7.0996094 18.5,9.1855469 14.314453,5 Z m -3.5,3.5 4.185546,4.1855465 -9.5800776,9.580078 -5.2324219,1.044922 1.046875,-5.232421 z"
     id="path433" />
</svg>
