<?xml version="1.0" encoding="UTF-8" standalone="no"?>
<svg
   fill="none"
   height="32"
   viewBox="0 0 32 32"
   width="32"
   version="1.1"
   id="svg495"
   sodipodi:docname="fast_lane_colored.svg"
   inkscape:version="1.1 (c68e22c387, 2021-05-23)"
   xmlns:inkscape="http://www.inkscape.org/namespaces/inkscape"
   xmlns:sodipodi="http://sodipodi.sourceforge.net/DTD/sodipodi-0.dtd"
   xmlns="http://www.w3.org/2000/svg"
   xmlns:svg="http://www.w3.org/2000/svg">
  <defs
     id="defs499" />
  <sodipodi:namedview
     id="namedview497"
     pagecolor="#ffffff"
     bordercolor="#666666"
     borderopacity="1.0"
     inkscape:pageshadow="2"
     inkscape:pageopacity="0.0"
     inkscape:pagecheckerboard="0"
     showgrid="false"
     inkscape:zoom="23.53125"
     inkscape:cx="16"
     inkscape:cy="16"
     inkscape:window-width="1920"
     inkscape:window-height="1017"
     inkscape:window-x="1272"
     inkscape:window-y="-8"
     inkscape:window-maximized="1"
     inkscape:current-layer="svg495" />
  <path
     style="color:#000000;fill:#2d2e32;stroke-linecap:round;stroke-linejoin:round;stroke-miterlimit:10;-inkscape-stroke:none"
     d="m 16,4 a 1,1 0 0 0 -1,1 v 2 a 1,1 0 0 0 1,1 1,1 0 0 0 1,-1 V 5 A 1,1 0 0 0 16,4 Z"
     id="path481" />
  <path
     style="color:#000000;fill:#2d2e32;stroke-linecap:round;stroke-linejoin:round;stroke-miterlimit:10;-inkscape-stroke:none"
     d="M 23.070312,7.515625 21.65625,8.9296875 a 1,1 0 0 0 0,1.4140625 1,1 0 0 0 1.414062,0 l 1.414063,-1.4140625 a 1,1 0 0 0 0,-1.4140625 1,1 0 0 0 -1.414063,0 z"
     id="path483" />
  <path
     style="color:#000000;fill:#2d2e32;stroke-linecap:round;stroke-linejoin:round;stroke-miterlimit:10;-inkscape-stroke:none"
     d="m 25,15 a 1,1 0 0 0 -1,1 1,1 0 0 0 1,1 h 2 a 1,1 0 0 0 1,-1 1,1 0 0 0 -1,-1 z"
     id="path485" />
  <path
     style="color:#000000;fill:#2d2e32;stroke-linecap:round;stroke-linejoin:round;stroke-miterlimit:10;-inkscape-stroke:none"
     d="m 5,15 a 1,1 0 0 0 -1,1 1,1 0 0 0 1,1 H 7 A 1,1 0 0 0 8,16 1,1 0 0 0 7,15 Z"
     id="path487" />
  <path
     style="color:#000000;fill:#2d2e32;stroke-linecap:round;stroke-linejoin:round;stroke-miterlimit:10;-inkscape-stroke:none"
     d="M 16,0 C 7.1752985,0 0,7.1752985 0,16 0,24.82473 7.1753009,32 16,32 24.824727,32 32,24.824727 32,16 32,7.1753009 24.82473,0 16,0 Z m 0,2 C 23.743854,2 30,8.2561756 30,16 30,23.743856 23.743856,30 16,30 8.2561756,30 2,23.743854 2,16 2,8.256178 8.256178,2 16,2 Z"
     id="path489" />
  <path
     style="color:#000000;fill:#2d2e32;stroke-linecap:round;stroke-linejoin:round;stroke-miterlimit:10;-inkscape-stroke:none"
     d="m 8,7 a 1,1 0 0 0 -0.7070313,0.2929687 1,1 0 0 0 0,1.4140626 l 5.8808593,5.8808597 a 1,1 0 0 0 1.414063,0 1,1 0 0 0 0,-1.414063 L 8.7070313,7.2929687 A 1,1 0 0 0 8,7 Z"
     id="path491" />
  <path
     style="color:#000000;fill:#0277e7;stroke-linecap:round;stroke-linejoin:round;stroke-miterlimit:10;-inkscape-stroke:none"
     d="m 16,12 c -2.197305,0 -4,1.802695 -4,4 0,2.197305 1.802695,4 4,4 2.197305,0 4,-1.802695 4,-4 0,-2.197305 -1.802695,-4 -4,-4 z m 0,2 c 1.116492,0 2,0.883508 2,2 0,1.116492 -0.883508,2 -2,2 -1.116492,0 -2,-0.883508 -2,-2 0,-1.116492 0.883508,-2 2,-2 z"
     id="path493" />
</svg>
