<?xml version="1.0" encoding="UTF-8" standalone="no"?>
<svg
   fill="none"
   height="32"
   viewBox="0 0 32 32"
   width="32"
   version="1.1"
   id="svg730"
   sodipodi:docname="fire_selected_colored.svg"
   inkscape:version="1.1 (c68e22c387, 2021-05-23)"
   xmlns:inkscape="http://www.inkscape.org/namespaces/inkscape"
   xmlns:sodipodi="http://sodipodi.sourceforge.net/DTD/sodipodi-0.dtd"
   xmlns="http://www.w3.org/2000/svg"
   xmlns:svg="http://www.w3.org/2000/svg">
  <defs
     id="defs734" />
  <sodipodi:namedview
     id="namedview732"
     pagecolor="#ffffff"
     bordercolor="#666666"
     borderopacity="1.0"
     inkscape:pageshadow="2"
     inkscape:pageopacity="0.0"
     inkscape:pagecheckerboard="0"
     showgrid="false"
     inkscape:zoom="23.53125"
     inkscape:cx="16"
     inkscape:cy="16"
     inkscape:window-width="1920"
     inkscape:window-height="1017"
     inkscape:window-x="1272"
     inkscape:window-y="-8"
     inkscape:window-maximized="1"
     inkscape:current-layer="svg730" />
  <path
     style="color:#000000;fill:#2d2e32;stroke-linecap:round;stroke-linejoin:round;stroke-miterlimit:10;-inkscape-stroke:none"
     d="M 16,0 C 7.1752985,0 0,7.1752985 0,16 0,24.285408 6.3170857,31.119408 14.400391,31.921875 a 1,1 0 0 0 1.09375,-0.896484 1,1 0 0 0 -0.894532,-1.09375 C 7.5229695,29.22911 2,23.270577 2,16 2,8.256178 8.256178,2 16,2 c 7.743854,0 14,6.2561756 14,14 0,0.553267 -0.03149,1.09897 -0.09375,1.634766 a 1,1 0 0 0 0.876953,1.109375 1,1 0 0 0 1.109375,-0.878907 C 31.963717,17.253031 32,16.630532 32,16 32,7.1753009 24.82473,0 16,0 Z"
     id="path720" />
  <path
     style="color:#000000;fill:#0277e7;stroke-linecap:round;stroke-linejoin:round;stroke-miterlimit:10;-inkscape-stroke:none"
     d="M 12.515625,10.125 A 1.0001,1.0001 0 0 0 12,11 v 10 a 1.0001,1.0001 0 0 0 1.529297,0.847656 l 8,-5 a 1.0001,1.0001 0 0 0 0,-1.695312 l -8,-5 A 1.0001,1.0001 0 0 0 12.515625,10.125 Z M 14,12.802734 19.115234,16 14,19.197266 Z"
     id="path722" />
  <path
     style="color:#000000;fill:#0277e7;stroke-linecap:round;stroke-linejoin:round;stroke-miterlimit:10;-inkscape-stroke:none"
     d="m 21,26 a 1,1 0 0 0 -1,1 1,1 0 0 0 1,1 h 10 a 1,1 0 0 0 1,-1 1,1 0 0 0 -1,-1 z"
     id="path724" />
  <path
     style="color:#000000;fill:#0277e7;stroke-linecap:round;stroke-linejoin:round;stroke-miterlimit:10;-inkscape-stroke:none"
     d="m 21,30 a 1,1 0 0 0 -1,1 1,1 0 0 0 1,1 h 10 a 1,1 0 0 0 1,-1 1,1 0 0 0 -1,-1 z"
     id="path726" />
  <path
     style="color:#000000;fill:#0277e7;stroke-linecap:round;stroke-linejoin:round;stroke-miterlimit:10;-inkscape-stroke:none"
     d="m 21,22 a 1,1 0 0 0 -1,1 1,1 0 0 0 1,1 h 10 a 1,1 0 0 0 1,-1 1,1 0 0 0 -1,-1 z"
     id="path728" />
</svg>
