<?xml version="1.0" encoding="UTF-8" standalone="no"?>
<svg
   fill="none"
   height="32"
   viewBox="0 0 31 32"
   width="31"
   version="1.1"
   id="svg883"
   sodipodi:docname="history_simple.svg"
   inkscape:version="1.1 (c68e22c387, 2021-05-23)"
   xmlns:inkscape="http://www.inkscape.org/namespaces/inkscape"
   xmlns:sodipodi="http://sodipodi.sourceforge.net/DTD/sodipodi-0.dtd"
   xmlns="http://www.w3.org/2000/svg"
   xmlns:svg="http://www.w3.org/2000/svg">
  <defs
     id="defs887" />
  <sodipodi:namedview
     id="namedview885"
     pagecolor="#ffffff"
     bordercolor="#666666"
     borderopacity="1.0"
     inkscape:pageshadow="2"
     inkscape:pageopacity="0.0"
     inkscape:pagecheckerboard="0"
     showgrid="false"
     inkscape:zoom="23.53125"
     inkscape:cx="15.49004"
     inkscape:cy="16"
     inkscape:window-width="1920"
     inkscape:window-height="1017"
     inkscape:window-x="1272"
     inkscape:window-y="-8"
     inkscape:window-maximized="1"
     inkscape:current-layer="svg883" />
  <path
     style="color:#000000;fill:#2d2e32;stroke-linecap:round;stroke-linejoin:round;stroke-miterlimit:10;-inkscape-stroke:none;fill-opacity:1"
     d="M 6,7 A 1,1 0 0 0 5,8 1,1 0 0 0 6,9 h 7 A 1,1 0 0 0 14,8 1,1 0 0 0 13,7 Z"
     id="path867" />
  <path
     style="color:#000000;fill:#2d2e32;stroke-linecap:round;stroke-linejoin:round;stroke-miterlimit:10;-inkscape-stroke:none;fill-opacity:1"
     d="m 6,13 a 1,1 0 0 0 -1,1 1,1 0 0 0 1,1 h 7 a 1,1 0 0 0 1,-1 1,1 0 0 0 -1,-1 z"
     id="path869" />
  <path
     style="color:#000000;fill:#2d2e32;stroke-linecap:round;stroke-linejoin:round;stroke-miterlimit:10;-inkscape-stroke:none;fill-opacity:1"
     d="m 6,19 a 1,1 0 0 0 -1,1 1,1 0 0 0 1,1 h 7 a 1,1 0 0 0 1,-1 1,1 0 0 0 -1,-1 z"
     id="path871" />
  <path
     style="color:#000000;fill:#2d2e32;stroke-linecap:round;stroke-linejoin:round;stroke-miterlimit:10;-inkscape-stroke:none;fill-opacity:1"
     d="m 18,13 a 1,1 0 0 0 -1,1 1,1 0 0 0 1,1 h 2 a 1,1 0 0 0 1,-1 1,1 0 0 0 -1,-1 z"
     id="path873" />
  <path
     style="color:#000000;fill:#2d2e32;stroke-linecap:round;stroke-linejoin:round;stroke-miterlimit:10;-inkscape-stroke:none;fill-opacity:1"
     d="m 18,7 a 1,1 0 0 0 -1,1 1,1 0 0 0 1,1 h 2 A 1,1 0 0 0 21,8 1,1 0 0 0 20,7 Z"
     id="path875" />
  <path
     style="color:#000000;fill:#2d2e32;stroke-linecap:round;stroke-linejoin:round;stroke-miterlimit:10;-inkscape-stroke:none;fill-opacity:1"
     d="M 1,0 A 1.0001,1.0001 0 0 0 0,1 v 28 a 1.0001,1.0001 0 0 0 1.3710937,0.927734 l 4.5117188,-1.804687 2.5625,1.708984 a 1.0001,1.0001 0 0 0 1.0019531,0.0625 L 13,28.117187 l 1.724609,0.863282 a 1,1 0 0 0 1.341797,-0.447266 1,1 0 0 0 -0.447265,-1.341797 l -2.171875,-1.085937 a 1.0001,1.0001 0 0 0 -0.894532,0 L 9.0722656,27.845703 6.5546875,26.167969 a 1.0001,1.0001 0 0 0 -0.9257813,-0.0957 L 2,27.523437 V 2 h 22 v 13.5 a 1,1 0 0 0 1,1 1,1 0 0 0 1,-1 V 1 A 1.0001,1.0001 0 0 0 25,0 Z"
     id="path877" />
  <path
     style="color:#000000;fill:#2d2e32;stroke-linecap:round;stroke-linejoin:round;stroke-miterlimit:10;-inkscape-stroke:none;fill-opacity:1"
     d="m 24,18 c -3.854139,0 -7,3.145861 -7,7 0,3.854139 3.145861,7 7,7 3.854139,0 7,-3.145861 7,-7 0,-3.854139 -3.145861,-7 -7,-7 z m 0,2 c 2.773254,0 5,2.226746 5,5 0,2.773254 -2.226746,5 -5,5 -2.773254,0 -5,-2.226746 -5,-5 0,-2.773254 2.226746,-5 5,-5 z"
     id="path879" />
  <path
     style="color:#000000;fill:#2d2e32;stroke-linecap:round;stroke-linejoin:round;stroke-miterlimit:10;-inkscape-stroke:none;fill-opacity:1"
     d="m 24,21.427734 a 1,1 0 0 0 -1,1 V 25 a 1.0001,1.0001 0 0 0 1,1 h 2.572266 a 1,1 0 0 0 1,-1 1,1 0 0 0 -1,-1 H 25 v -1.572266 a 1,1 0 0 0 -1,-1 z"
     id="path881" />
</svg>
