<?xml version="1.0" encoding="UTF-8" standalone="no"?>
<svg
   fill="none"
   height="32"
   viewBox="0 0 32 32"
   width="32"
   version="1.1"
   id="svg966"
   sodipodi:docname="hold_simple.svg"
   inkscape:version="1.1 (c68e22c387, 2021-05-23)"
   xmlns:inkscape="http://www.inkscape.org/namespaces/inkscape"
   xmlns:sodipodi="http://sodipodi.sourceforge.net/DTD/sodipodi-0.dtd"
   xmlns="http://www.w3.org/2000/svg"
   xmlns:svg="http://www.w3.org/2000/svg">
  <defs
     id="defs970" />
  <sodipodi:namedview
     id="namedview968"
     pagecolor="#ffffff"
     bordercolor="#666666"
     borderopacity="1.0"
     inkscape:pageshadow="2"
     inkscape:pageopacity="0.0"
     inkscape:pagecheckerboard="0"
     showgrid="false"
     inkscape:zoom="23.53125"
     inkscape:cx="16"
     inkscape:cy="16"
     inkscape:window-width="1920"
     inkscape:window-height="1017"
     inkscape:window-x="1272"
     inkscape:window-y="-8"
     inkscape:window-maximized="1"
     inkscape:current-layer="svg966" />
  <path
     style="color:#000000;fill:#2d2e32;stroke-linecap:round;stroke-linejoin:round;stroke-miterlimit:10;-inkscape-stroke:none;fill-opacity:1"
     d="M 16,0 C 7.1752985,0 0,7.1752985 0,16 0,24.82473 7.1753009,32 16,32 24.824727,32 32,24.824727 32,16 32,7.1753009 24.82473,0 16,0 Z m 0,2 C 23.743854,2 30,8.2561756 30,16 30,23.743856 23.743856,30 16,30 8.2561756,30 2,23.743854 2,16 2,8.256178 8.256178,2 16,2 Z"
     id="path960" />
  <path
     style="color:#000000;fill:#2d2e32;stroke-linecap:round;stroke-linejoin:round;stroke-miterlimit:10;-inkscape-stroke:none;fill-opacity:1"
     d="m 9,9 a 1.0001,1.0001 0 0 0 -1,1 v 12 a 1.0001,1.0001 0 0 0 1,1 h 4 a 1.0001,1.0001 0 0 0 1,-1 V 10 A 1.0001,1.0001 0 0 0 13,9 Z m 1,2 h 2 v 10 h -2 z"
     id="path962" />
  <path
     style="color:#000000;fill:#2d2e32;stroke-linecap:round;stroke-linejoin:round;stroke-miterlimit:10;-inkscape-stroke:none;fill-opacity:1"
     d="m 19,9 a 1.0001,1.0001 0 0 0 -1,1 v 12 a 1.0001,1.0001 0 0 0 1,1 h 4 a 1.0001,1.0001 0 0 0 1,-1 V 10 A 1.0001,1.0001 0 0 0 23,9 Z m 1,2 h 2 v 10 h -2 z"
     id="path964" />
</svg>
