<?xml version="1.0" encoding="UTF-8" standalone="no"?>
<svg
   fill="none"
   height="22"
   viewBox="0 0 26 22"
   width="26"
   version="1.1"
   id="svg1006"
   sodipodi:docname="house_simple.svg"
   inkscape:version="1.1 (c68e22c387, 2021-05-23)"
   xmlns:inkscape="http://www.inkscape.org/namespaces/inkscape"
   xmlns:sodipodi="http://sodipodi.sourceforge.net/DTD/sodipodi-0.dtd"
   xmlns="http://www.w3.org/2000/svg"
   xmlns:svg="http://www.w3.org/2000/svg">
  <defs
     id="defs1010" />
  <sodipodi:namedview
     id="namedview1008"
     pagecolor="#ffffff"
     bordercolor="#666666"
     borderopacity="1.0"
     inkscape:pageshadow="2"
     inkscape:pageopacity="0.0"
     inkscape:pagecheckerboard="0"
     showgrid="false"
     inkscape:zoom="34.227273"
     inkscape:cx="12.98672"
     inkscape:cy="11"
     inkscape:window-width="1920"
     inkscape:window-height="1017"
     inkscape:window-x="1272"
     inkscape:window-y="-8"
     inkscape:window-maximized="1"
     inkscape:current-layer="svg1006" />
  <path
     style="color:#000000;fill:#2d2e32;stroke-linecap:round;stroke-linejoin:round;-inkscape-stroke:none"
     d="M 12.337891,0.25 0.33789063,10.837891 A 1.0001,1.0001 0 0 0 1,12.587891 H 3.5996094 V 21 a 1.0001,1.0001 0 0 0 1,1 h 5.9999996 a 1.0001,1.0001 0 0 0 1,-1 v -6.058594 h 2.800782 V 21 a 1.0001,1.0001 0 0 0 1,1 h 6 a 1.0001,1.0001 0 0 0 1,-1 V 12.587891 H 25 a 1.0001,1.0001 0 0 0 0.662109,-1.75 l -12,-10.587891 a 1.0001,1.0001 0 0 0 -1.324218,0 z M 13,2.3339844 22.355469,10.587891 h -0.955078 a 1.0001,1.0001 0 0 0 -1,1 V 20 h -4 v -6.058594 a 1.0001,1.0001 0 0 0 -1,-1 h -4.800782 a 1.0001,1.0001 0 0 0 -0.9999996,1 V 20 h -4 v -8.412109 a 1.0001,1.0001 0 0 0 -1,-1 H 3.6445313 Z"
     id="path1004" />
</svg>
