<?xml version="1.0" encoding="UTF-8" standalone="no"?>
<svg
   fill="none"
   height="31"
   viewBox="0 0 32 31"
   width="32"
   version="1.1"
   id="svg1140"
   sodipodi:docname="language_colored.svg"
   inkscape:version="1.1 (c68e22c387, 2021-05-23)"
   xmlns:inkscape="http://www.inkscape.org/namespaces/inkscape"
   xmlns:sodipodi="http://sodipodi.sourceforge.net/DTD/sodipodi-0.dtd"
   xmlns="http://www.w3.org/2000/svg"
   xmlns:svg="http://www.w3.org/2000/svg">
  <defs
     id="defs1144" />
  <sodipodi:namedview
     id="namedview1142"
     pagecolor="#ffffff"
     bordercolor="#666666"
     borderopacity="1.0"
     inkscape:pageshadow="2"
     inkscape:pageopacity="0.0"
     inkscape:pagecheckerboard="0"
     showgrid="false"
     inkscape:zoom="24.290323"
     inkscape:cx="15.994024"
     inkscape:cy="15.5"
     inkscape:window-width="1920"
     inkscape:window-height="1017"
     inkscape:window-x="1272"
     inkscape:window-y="-8"
     inkscape:window-maximized="1"
     inkscape:current-layer="svg1140" />
  <path
     style="color:#000000;fill:#2d2e32;stroke-linecap:round;stroke-linejoin:round;stroke-miterlimit:10;-inkscape-stroke:none"
     d="M 3,0 C 2.2047416,0 1.4412465,0.31655101 0.87890625,0.87890625 0.31655101,1.4412465 0,2.2047416 0,3 v 11 c 0,0.795243 0.31659035,1.558748 0.87890625,2.121094 C 1.4412548,16.683487 2.2047542,17 3,17 v 1.667969 a 1.0001,1.0001 0 0 0 1.5546875,0.830078 L 8.3027344,17 H 11 a 1,1 0 0 0 1,-1 1,1 0 0 0 -1,-1 H 8 A 1.0001,1.0001 0 0 0 7.4453125,15.167969 L 5,16.798828 V 16 A 1.0001,1.0001 0 0 0 4,15 H 3 C 2.7343869,15 2.4807594,14.894837 2.2929688,14.707031 2.1051254,14.519178 2,14.265556 2,14 V 3 C 2,2.7343994 2.1051647,2.4807678 2.2929688,2.2929688 2.4807678,2.1051647 2.7343994,2 3,2 h 12 c 0.265556,0 0.519178,0.1051254 0.707031,0.2929688 C 15.894837,2.4807594 16,2.7343869 16,3 v 5 a 1,1 0 0 0 1,1 1,1 0 0 0 1,-1 V 3 C 18,2.2047542 17.683487,1.4412548 17.121094,0.87890625 16.558748,0.31659035 15.795243,0 15,0 Z"
     id="path1132" />
  <path
     style="color:#000000;fill:#2d2e32;stroke-linecap:round;stroke-linejoin:round;stroke-miterlimit:10;-inkscape-stroke:none"
     d="m 17,11 c -0.795231,0 -1.55874,0.316552 -2.121094,0.878906 C 14.316552,12.44126 14,13.204769 14,14 v 11 c 0,0.795231 0.316552,1.55874 0.878906,2.121094 C 15.44126,27.683448 16.204769,28 17,28 h 6.697266 l 3.748046,2.498047 A 1.0001,1.0001 0 0 0 29,29.667969 V 28 c 0.795231,0 1.55874,-0.316552 2.121094,-0.878906 C 31.683448,26.55874 32,25.795231 32,25 V 14 C 32,13.204769 31.683448,12.44126 31.121094,11.878906 30.55874,11.316552 29.795231,11 29,11 Z m 0,2 h 12 c 0.265568,0 0.519186,0.105124 0.707031,0.292969 C 29.894876,13.480814 30,13.734432 30,14 v 11 c 0,0.265568 -0.105124,0.519186 -0.292969,0.707031 C 29.519186,25.894876 29.265568,26 29,26 h -1 a 1.0001,1.0001 0 0 0 -1,1 v 0.798828 L 24.554687,26.167969 A 1.0001,1.0001 0 0 0 24,26 H 17 C 16.734432,26 16.480814,25.894876 16.292969,25.707031 16.105124,25.519186 16,25.265568 16,25 V 14 c 0,-0.265568 0.105124,-0.519186 0.292969,-0.707031 C 16.480814,13.105124 16.734432,13 17,13 Z"
     id="path1134" />
  <g
     id="path1136">
    <path
       style="color:#000000;fill:#0277e7;stroke-linecap:round;stroke-linejoin:round;-inkscape-stroke:none"
       d="m 24.1642,15.8999 2.5009,7.6 H 25.2096 L 24.8833,22.2715 C 24.8251,22.0524 24.6267,21.8999 24.4,21.8999 h -2.78 c -0.2258,0 -0.4236,0.1514 -0.4826,0.3694 l -0.333,1.2306 h -1.4722 l 2.4691,-7.6 z m -0.2392,5.1 c 0.155,0 0.3013,-0.0719 0.3959,-0.1946 0.0947,-0.1227 0.1271,-0.2824 0.0878,-0.4323 l -0.369,-1.406 v 0 l -0.0016,-0.0057 c -0.0844,-0.3071 -0.188,-0.7071 -0.3108,-1.2011 -0.1232,-0.4954 -0.2,-0.8371 -0.2347,-1.0354 -0.0418,-0.2391 -0.2494,-0.4137 -0.4921,-0.4139 -0.2428,-2e-4 -0.4506,0.174 -0.4928,0.413 -0.0331,0.1872 -0.1001,0.5049 -0.2033,0.9605 -0.101,0.4455 -0.3292,1.3383 -0.6876,2.6871 -0.0399,0.1501 -0.0078,0.3101 0.0869,0.4332 0.0946,0.1231 0.2411,0.1952 0.3963,0.1952 z"
       id="path1156" />
    <path
       style="color:#000000;fill:#0277e7;stroke-linecap:round;stroke-linejoin:round;-inkscape-stroke:none"
       d="m 21.800781,15.400391 a 0.50005,0.50005 0 0 0 -0.474609,0.345703 l -2.46875,7.599609 A 0.50005,0.50005 0 0 0 19.332031,24 h 1.472656 a 0.50005,0.50005 0 0 0 0.482422,-0.369141 l 0.332032,-1.230468 h 2.78125 l 0.326171,1.228515 A 0.50005,0.50005 0 0 0 25.208984,24 h 1.457032 a 0.50005,0.50005 0 0 0 0.474609,-0.65625 l -2.501953,-7.599609 a 0.50005,0.50005 0 0 0 -0.47461,-0.34375 z m 0.363281,1 h 0.132813 c -0.0473,0.07198 -0.156015,0.07067 -0.183594,0.154296 z m 1.53711,0 h 0.101562 l 0.03906,0.117187 c -0.0249,-0.06183 -0.104517,-0.06234 -0.140625,-0.117187 z M 23,16.810547 c 0.03948,0.225623 0.117737,0.569885 0.242187,1.070312 0.123439,0.49657 0.22836,0.89963 0.314454,1.212891 a 0.50005,0.50005 0 0 0 0,0.002 v 0.002 L 23.925781,20.5 h -1.826172 c 0.358935,-1.350814 0.588302,-2.241678 0.69336,-2.705078 C 22.896932,17.335953 22.963646,17.016153 23,16.810547 Z m -1.121094,0.464844 c -0.02529,0.116061 -0.02987,0.154777 -0.0625,0.298828 -0.09694,0.427599 -0.325729,1.321185 -0.683594,2.667968 -0.07967,0.299704 -0.01525,0.621412 0.173829,0.867188 0.140699,0.183088 0.369698,0.238083 0.589843,0.291016 h -0.277343 c -0.449302,0 -0.847475,0.304613 -0.964844,0.738281 L 20.421875,23 h -0.400391 z m 2.345703,0.40625 L 25.972656,23 H 25.59375 L 25.367187,22.142578 C 25.251383,21.70662 24.851322,21.400391 24.400391,21.400391 h -0.271485 c 0.219564,-0.05286 0.447308,-0.106721 0.587891,-0.289063 0.18921,-0.245154 0.254271,-0.565855 0.175781,-0.865234 l -0.369141,-1.40625 a 0.50005,0.50005 0 0 0 -0.002,-0.0078 l -0.002,-0.0039 v -0.002 c -0.07964,-0.289849 -0.178728,-0.678276 -0.294922,-1.144531 z"
       id="path1158" />
  </g>
  <g
     id="path1138">
    <path
       style="color:#000000;fill:#2d2e32;stroke-linecap:round;stroke-linejoin:round;-inkscape-stroke:none"
       d="M 13.1849,5.18885 V 5.91506 C 12.9138,5.90042 12.625,5.89312 12.2659,5.89312 c -0.2363,0 -0.4403,0.16542 -0.4892,0.39662 -0.1325,0.62723 -0.3466,1.23443 -0.6367,1.80613 l -4e-4,8.8e-4 c -0.2761,0.54687 -0.6239,1.05454 -1.0341,1.50961 -0.1007,0.11169 -0.14572,0.26278 -0.12267,0.41134 0.02307,0.1486 0.11177,0.279 0.24157,0.3549 0.8845,0.5178 1.8414,0.8971 2.8373,1.1262 -0.1697,0.2814 -0.3192,0.5746 -0.4473,0.8774 C 11.4666,12.0056 10.3813,11.4616 9.39635,10.7624 9.2248,10.6406 8.99537,10.6393 8.82238,10.759 7.78338,11.4781 6.64034,12.0319 5.43397,12.4017 5.31299,12.1143 5.17088,11.8365 5.00886,11.5704 6.04661,11.3098 7.04364,10.9036 7.96996,10.3629 8.1006,10.2867 8.1897,10.1554 8.21231,10.0058 8.23491,9.85628 8.1886,9.70452 8.08633,9.59307 7.60871,9.07255 7.20035,8.49249 6.87141,7.8673 h 10e-6 L 6.87032,7.86525 C 6.59744,7.3524 6.37934,6.81223 6.21966,6.25368 6.15831,6.03907 5.96213,5.89112 5.73892,5.89112 c -0.37411,0 -0.65167,0.00792 -0.929,0.02356 V 5.18869 c 0.31673,0.02025 0.63415,0.02874 0.95163,0.02543 h 2.20637 c 0.27614,0 0.5,-0.22386 0.5,-0.5 V 4.11571 4.11412 h -0.5 M 13.1849,5.18885 8.4166,3.49512 c 0.02857,0.16527 0.04527,0.33236 0.04999,0.5 H 7.96636 c 0.0013,0.03963 0.00182,0.07931 0.00156,0.119 M 13.1849,5.18885 C 12.8678,5.20916 12.55,5.2176 12.2322,5.21412 H 9.85692 c -0.27614,0 -0.5,-0.22386 -0.5,-0.5 V 4.10496 c 0,-9e-5 0,-1.9e-4 0,-2.9e-4 z M 7.96792,4.11412 v 0.1 z m -0.31,1.779 c -0.15678,0 -0.30448,0.07353 -0.39897,0.19863 -0.09449,0.1251 -0.12484,0.28728 -0.08197,0.43808 0.28137,0.98985 0.80471,1.8941 1.5228,2.6312 C 8.79704,9.26085 8.93155,9.31556 9.07087,9.31195 9.2102,9.30834 9.34169,9.24674 9.43365,9.14201 10.0953,8.38843 10.5625,7.48438 10.7944,6.50875 10.8297,6.35995 10.7951,6.20314 10.7002,6.08313 10.6054,5.96312 10.4609,5.89312 10.3079,5.89312 Z"
       id="path1148" />
    <path
       style="color:#000000;fill:#2d2e32;stroke-linecap:round;stroke-linejoin:round;-inkscape-stroke:none"
       d="M 8.5839844,3.0234375 A 0.50005,0.50005 0 0 0 7.953125,3.5019531 0.50005,0.50005 0 0 0 7.4667969,4.0117187 c 0.00108,0.033066 0.00217,0.066469 0.00195,0.099609 a 0.5,0.5 0 0 0 0,0.00195 v 0.1015625 a 0.50005,0.50005 0 0 0 0.068359,0.068359 0.50005,0.50005 0 0 0 0.00195,0.00195 0.5,0.5 0 0 0 0.076172,0.1816407 0.5,0.5 0 0 0 0.1894531,0.078125 0.5,0.5 0 0 0 0,0.00195 0.50005,0.50005 0 0 0 0.1640625,0.1601562 v 0.00781 H 5.7617187 a 0.50005,0.50005 0 0 0 -0.00586,0 c -0.3050932,0.00318 -0.6096799,-0.00593 -0.9140625,-0.025391 a 0.50005,0.50005 0 0 0 -0.53125,0.5 v 0.7246094 a 0.50005,0.50005 0 0 0 0.5273437,0.5 C 5.10597,6.3989442 5.3712284,6.390625 5.7382812,6.390625 5.907617,6.9829501 6.1403145,7.5557624 6.4296875,8.0996094 a 0.50005,0.50005 0 0 0 0,0.00195 l 0.00195,0.00195 C 6.7802885,8.7653623 7.2129836,9.3804461 7.71875,9.9316406 6.8331753,10.448557 5.8788023,10.836805 4.8867187,11.085938 a 0.50005,0.50005 0 0 0 -0.3046875,0.74414 c 0.1491718,0.244998 0.2792668,0.501082 0.390625,0.765625 a 0.50005,0.50005 0 0 0 0.6074219,0.283203 c 1.2554902,-0.384857 2.4460181,-0.96059 3.5273438,-1.708984 1.0264991,0.728695 2.1572691,1.295398 3.3535161,1.681641 a 0.50005,0.50005 0 0 0 0.613281,-0.28125 c 0.118837,-0.280905 0.258569,-0.55142 0.416015,-0.8125 A 0.50005,0.50005 0 0 0 13.173828,11.011719 C 12.227239,10.793962 11.317248,10.433557 10.476563,9.9414063 10.916475,9.4533733 11.28981,8.9088049 11.585938,8.3222656 11.895763,7.7116934 12.1241,7.06253 12.265625,6.3925781 c 0.352323,0 0.631634,0.00739 0.892578,0.021484 A 0.50005,0.50005 0 0 0 13.685547,5.9160156 V 5.1894531 a 0.5,0.5 0 0 0 -0.0039,-0.015625 0.5,0.5 0 0 0 -0.01563,-0.083984 0.5,0.5 0 0 0 -0.01563,-0.068359 0.50005,0.50005 0 0 0 -0.002,-0.013672 0.5,0.5 0 0 0 -0.0078,-0.019531 0.5,0.5 0 0 0 -0.05273,-0.080078 0.5,0.5 0 0 0 -0.0625,-0.080078 0.5,0.5 0 0 0 -0.06836,-0.046875 0.5,0.5 0 0 0 -0.09375,-0.056641 0.5,0.5 0 0 0 -0.01172,-0.00781 z m 0.328125,1.8242187 c 0.031724,0.203242 0.092195,0.40038 0.2285156,0.5449219 H 8.6835938 C 8.819784,5.248183 8.8802868,5.050658 8.9121094,4.8476562 Z M 6.1679687,5.7148437 h 0.84375 C 6.9685182,5.7547467 6.8953854,5.7433397 6.859375,5.7910156 6.753648,5.9309929 6.7897636,6.1114686 6.7675781,6.28125 6.7500263,6.2247702 6.7174376,6.1740838 6.7011719,6.1171875 6.6335681,5.8807009 6.3650216,5.8435117 6.1679687,5.7148437 Z m 4.8027343,0 h 0.896485 c -0.225358,0.140656 -0.522448,0.1982265 -0.580079,0.4707032 -0.0132,0.062501 -0.04952,0.1176295 -0.06445,0.1796875 -0.0091,-0.2077441 9.11e-4,-0.4251616 -0.130859,-0.5917969 -0.02925,-0.037031 -0.08736,-0.026457 -0.121094,-0.058594 z M 7.6582031,6.3925781 H 10.308594 C 10.095563,7.2888234 9.6664254,8.1202159 9.0585938,8.8125 8.3983997,8.1348286 7.916886,7.3026157 7.6582031,6.3925781 Z M 10.8125,7.53125 c -0.04851,0.1094801 -0.06488,0.2309567 -0.119141,0.3378906 a 0.50005,0.50005 0 0 0 -0.0039,0.00977 C 10.628891,7.9984567 10.530736,8.0936461 10.462891,8.2089844 10.586612,7.9847804 10.715387,7.7684348 10.8125,7.53125 Z M 9.6523438,9.546875 c -0.082534,0.1775537 -0.1946947,0.3494472 -0.1640625,0.546875 0.016943,0.109137 0.1276726,0.165861 0.1777343,0.261719 -0.3398958,-0.2305 -0.7902756,-0.242127 -1.1289062,-0.0078 -0.0053,0.0037 -0.012268,0.0041 -0.017578,0.0078 0.054219,-0.10036 0.1700777,-0.160116 0.1875,-0.275391 C 8.7333491,9.9059611 8.6227149,9.7601767 8.5605469,9.5996094 8.7247214,9.701182 8.8877085,9.8175858 9.0839844,9.8125 9.3022222,9.8068455 9.4836924,9.6807021 9.6523438,9.546875 Z"
       id="path1150" />
  </g>
</svg>
