<?xml version="1.0" encoding="UTF-8" standalone="no"?>
<svg
   fill="none"
   height="18"
   viewBox="0 0 22 18"
   width="22"
   version="1.1"
   id="svg1203"
   sodipodi:docname="logout_simple.svg"
   inkscape:version="1.1 (c68e22c387, 2021-05-23)"
   xmlns:inkscape="http://www.inkscape.org/namespaces/inkscape"
   xmlns:sodipodi="http://sodipodi.sourceforge.net/DTD/sodipodi-0.dtd"
   xmlns="http://www.w3.org/2000/svg"
   xmlns:svg="http://www.w3.org/2000/svg">
  <defs
     id="defs1207" />
  <sodipodi:namedview
     id="namedview1205"
     pagecolor="#ffffff"
     bordercolor="#666666"
     borderopacity="1.0"
     inkscape:pageshadow="2"
     inkscape:pageopacity="0.0"
     inkscape:pagecheckerboard="0"
     showgrid="false"
     inkscape:zoom="41.833333"
     inkscape:cx="11.007968"
     inkscape:cy="9"
     inkscape:window-width="1920"
     inkscape:window-height="1017"
     inkscape:window-x="1272"
     inkscape:window-y="-8"
     inkscape:window-maximized="1"
     inkscape:current-layer="svg1203" />
  <path
     style="color:#000000;fill:#2d2e32;stroke-linecap:round;stroke-linejoin:round;stroke-miterlimit:10;-inkscape-stroke:none"
     d="M 2,8 A 1,1 0 0 0 1,9 1,1 0 0 0 2,10 H 15 A 1,1 0 0 0 16,9 1,1 0 0 0 15,8 Z"
     id="path1197" />
  <path
     style="color:#000000;fill:#2d2e32;stroke-linecap:round;stroke-linejoin:round;stroke-miterlimit:10;-inkscape-stroke:none"
     d="M 6,3 A 1,1 0 0 0 5.2929687,3.2929688 l -4.99999995,5 a 1.0001,1.0001 0 0 0 0,1.4140625 L 5.2929687,14.707031 a 1,1 0 0 0 1.4140625,0 1,1 0 0 0 0,-1.414062 L 2.4140625,9 6.7070312,4.7070312 a 1,1 0 0 0 0,-1.4140624 A 1,1 0 0 0 6,3 Z"
     id="path1199" />
  <path
     style="color:#000000;fill:#2d2e32;stroke-linecap:round;stroke-linejoin:round;-inkscape-stroke:none"
     d="m 12,0 a 1,1 0 0 0 -1,1 1,1 0 0 0 1,1 h 8 v 14 h -8 a 1,1 0 0 0 -1,1 1,1 0 0 0 1,1 h 9 a 1.0001,1.0001 0 0 0 1,-1 V 1 A 1.0001,1.0001 0 0 0 21,0 Z"
     id="path1201" />
</svg>
