<?xml version="1.0" encoding="UTF-8" standalone="no"?>
<svg
   fill="none"
   height="24"
   viewBox="0 0 24 24"
   width="24"
   version="1.1"
   id="svg1317"
   sodipodi:docname="manager_simple.svg"
   inkscape:version="1.1 (c68e22c387, 2021-05-23)"
   xmlns:inkscape="http://www.inkscape.org/namespaces/inkscape"
   xmlns:sodipodi="http://sodipodi.sourceforge.net/DTD/sodipodi-0.dtd"
   xmlns="http://www.w3.org/2000/svg"
   xmlns:svg="http://www.w3.org/2000/svg">
  <defs
     id="defs1321" />
  <sodipodi:namedview
     id="namedview1319"
     pagecolor="#ffffff"
     bordercolor="#666666"
     borderopacity="1.0"
     inkscape:pageshadow="2"
     inkscape:pageopacity="0.0"
     inkscape:pagecheckerboard="0"
     showgrid="false"
     inkscape:zoom="31.375"
     inkscape:cx="12"
     inkscape:cy="12"
     inkscape:window-width="1920"
     inkscape:window-height="1017"
     inkscape:window-x="1272"
     inkscape:window-y="-8"
     inkscape:window-maximized="1"
     inkscape:current-layer="svg1317" />
  <path
     style="color:#000000;fill:#2d2e32;stroke-linecap:round;stroke-linejoin:round;stroke-miterlimit:10;-inkscape-stroke:none"
     d="m 12,8 c -2.1973046,0 -4,1.8026954 -4,4 0,2.197305 1.8026954,4 4,4 2.197305,0 4,-1.802695 4,-4 0,-2.1973046 -1.802695,-4 -4,-4 z m 0,2 c 1.116492,0 2,0.883508 2,2 0,1.116492 -0.883508,2 -2,2 -1.116492,0 -2,-0.883508 -2,-2 0,-1.116492 0.883508,-2 2,-2 z"
     id="path1313" />
  <path
     style="color:#000000;fill:#2d2e32;stroke-linecap:round;stroke-linejoin:round;stroke-miterlimit:10;-inkscape-stroke:none"
     d="M 10,0 A 1.0001,1.0001 0 0 0 9.0078125,0.875 L 8.6445313,3.7871094 C 7.900993,4.0942058 7.2098147,4.4971312 6.5742187,4.9902344 L 3.8632813,3.8457031 A 1.0001,1.0001 0 0 0 2.6074219,4.2675781 L 0.60742187,7.7324219 a 1.0001,1.0001 0 0 0 0.26367188,1.296875 L 3.2109375,10.800781 c -0.1090353,0.798774 -0.1090353,1.599664 0,2.398438 l -2.33984375,1.771484 a 1.0001,1.0001 0 0 0 -0.26367188,1.296875 l 2.00000003,3.464844 a 1.0001,1.0001 0 0 0 1.2558594,0.421875 l 2.7109374,-1.144531 c 0.6355928,0.493106 1.326761,0.89603 2.0703126,1.203125 L 9.0078125,23.125 A 1.0001,1.0001 0 0 0 10,24 h 4 a 1.0001,1.0001 0 0 0 0.992188,-0.875 l 0.363281,-2.912109 c 0.743571,-0.307095 1.434728,-0.710012 2.070312,-1.203125 l 2.710938,1.144531 a 1.0001,1.0001 0 0 0 1.255859,-0.421875 l 2,-3.464844 A 1.0001,1.0001 0 0 0 23.128906,14.970703 L 20.863281,13.253906 C 20.922574,12.837624 20.999123,12.422956 21,12.001953 A 1.0001,1.0001 0 0 0 21,12 a 1.0001,1.0001 0 0 0 0,-0.002 c -8.77e-4,-0.421003 -0.07743,-0.835671 -0.136719,-1.251953 l 2.265625,-1.7167971 a 1.0001,1.0001 0 0 0 0.263672,-1.296875 l -2,-3.4648438 A 1.0001,1.0001 0 0 0 20.136719,3.8457031 L 17.425781,4.9902344 C 16.790193,4.4971241 16.099026,4.0942066 15.355469,3.7871094 L 14.992188,0.875 A 1.0001,1.0001 0 0 0 14,0 Z m 0.882813,2 h 2.234375 l 0.3125,2.5 a 1.0001,1.0001 0 0 0 0.6875,0.828125 c 0.962036,0.308137 1.845305,0.8213032 2.589843,1.5039062 a 1.0001,1.0001 0 0 0 1.064453,0.1835938 l 2.330078,-0.9824219 1.117188,1.9335938 -2.009766,1.5234375 a 1.0001,1.0001 0 0 0 -0.373047,1.0117186 c 0.108407,0.492644 0.163012,0.99542 0.164063,1.5 -0.0013,0.503273 -0.05594,1.004717 -0.164063,1.496094 a 1.0001,1.0001 0 0 0 0.373047,1.011719 l 2.009766,1.523437 -1.117188,1.933594 -2.330078,-0.982422 a 1.0001,1.0001 0 0 0 -1.064453,0.183594 c -0.744548,0.682611 -1.62784,1.195806 -2.589843,1.503906 A 1.0001,1.0001 0 0 0 13.429688,19.5 l -0.3125,2.5 h -2.234375 l -0.3125,-2.5 A 1.0001,1.0001 0 0 0 9.8828125,18.671875 C 8.9208466,18.363776 8.0375685,17.850596 7.2929687,17.167969 A 1.0001,1.0001 0 0 0 6.2285156,16.984375 L 3.8984375,17.966797 2.78125,16.033203 4.7910156,14.509766 a 1.0001,1.0001 0 0 0 0.3730469,-1.013672 c -0.2188977,-0.985525 -0.2188977,-2.006663 0,-2.992188 A 1.0001,1.0001 0 0 0 4.7910156,9.4902344 L 2.78125,7.9667969 3.8984375,6.0332031 6.2285156,7.015625 A 1.0001,1.0001 0 0 0 7.2929687,6.8320312 C 8.0375591,6.1494128 8.9208132,5.6362612 9.8828125,5.328125 A 1.0001,1.0001 0 0 0 10.570313,4.5 Z"
     id="path1315" />
</svg>
