<?xml version="1.0" encoding="UTF-8" standalone="no"?>
<svg
   fill="none"
   height="30"
   viewBox="0 0 32 30"
   width="32"
   version="1.1"
   id="svg1358"
   sodipodi:docname="messages_simple.svg"
   inkscape:version="1.1 (c68e22c387, 2021-05-23)"
   xmlns:inkscape="http://www.inkscape.org/namespaces/inkscape"
   xmlns:sodipodi="http://sodipodi.sourceforge.net/DTD/sodipodi-0.dtd"
   xmlns="http://www.w3.org/2000/svg"
   xmlns:svg="http://www.w3.org/2000/svg">
  <defs
     id="defs1362" />
  <sodipodi:namedview
     id="namedview1360"
     pagecolor="#ffffff"
     bordercolor="#666666"
     borderopacity="1.0"
     inkscape:pageshadow="2"
     inkscape:pageopacity="0.0"
     inkscape:pagecheckerboard="0"
     showgrid="false"
     inkscape:zoom="25.1"
     inkscape:cx="15.996016"
     inkscape:cy="15"
     inkscape:window-width="1920"
     inkscape:window-height="1017"
     inkscape:window-x="1272"
     inkscape:window-y="-8"
     inkscape:window-maximized="1"
     inkscape:current-layer="svg1358" />
  <path
     style="color:#000000;fill:#2d2e32;stroke-linecap:round;stroke-linejoin:round;stroke-miterlimit:10;-inkscape-stroke:none;fill-opacity:1"
     d="M 4,0 C 2.9395194,0 1.9217482,0.42200183 1.171875,1.171875 0.42200183,1.9217482 0,2.9395194 0,4 v 16 c 0,1.060447 0.42197773,2.078241 1.171875,2.828125 C 1.9217349,23.577972 2.9394942,24 4,24 h 6.53125 l 4.701172,5.640625 a 1.0001,1.0001 0 0 0 1.535156,0 L 21.46875,24 H 28 c 1.060472,0 2.078254,-0.422004 2.828125,-1.171875 C 31.577996,22.078254 32,21.060472 32,20 V 4 C 32,2.9394942 31.577972,1.9217349 30.828125,1.171875 30.078241,0.42197773 29.060447,0 28,0 Z m 0,2 h 24 c 0.530751,0 1.038748,0.2106159 1.414062,0.5859375 C 29.789415,2.9612965 30,3.4692074 30,4 v 16 c 0,0.530726 -0.210609,1.038734 -0.585938,1.414062 C 29.038734,21.789391 28.530726,22 28,22 h -7 a 1.0001,1.0001 0 0 0 -0.767578,0.359375 L 16,27.4375 11.767578,22.359375 A 1.0001,1.0001 0 0 0 11,22 H 4 C 3.4692074,22 2.9612965,21.789415 2.5859375,21.414062 2.2106159,21.038748 2,20.530751 2,20 V 4 C 2,3.4691822 2.2105918,2.9612832 2.5859375,2.5859375 2.9612832,2.2105918 3.4691822,2 4,2 Z"
     id="path1352" />
  <path
     style="color:#000000;fill:#2d2e32;stroke-linecap:round;stroke-linejoin:round;stroke-miterlimit:10;-inkscape-stroke:none;fill-opacity:1"
     d="M 8,8 A 1,1 0 0 0 7,9 1,1 0 0 0 8,10 H 24 A 1,1 0 0 0 25,9 1,1 0 0 0 24,8 Z"
     id="path1354" />
  <path
     style="color:#000000;fill:#2d2e32;stroke-linecap:round;stroke-linejoin:round;stroke-miterlimit:10;-inkscape-stroke:none;fill-opacity:1"
     d="m 8,14 a 1,1 0 0 0 -1,1 1,1 0 0 0 1,1 h 9 a 1,1 0 0 0 1,-1 1,1 0 0 0 -1,-1 z"
     id="path1356" />
</svg>
