<?xml version="1.0" encoding="UTF-8" standalone="no"?>
<svg
   fill="none"
   height="24"
   viewBox="0 0 30 24"
   width="30"
   version="1.1"
   id="svg1428"
   sodipodi:docname="next_colored.svg"
   inkscape:version="1.1 (c68e22c387, 2021-05-23)"
   xmlns:inkscape="http://www.inkscape.org/namespaces/inkscape"
   xmlns:sodipodi="http://sodipodi.sourceforge.net/DTD/sodipodi-0.dtd"
   xmlns="http://www.w3.org/2000/svg"
   xmlns:svg="http://www.w3.org/2000/svg">
  <defs
     id="defs1432" />
  <sodipodi:namedview
     id="namedview1430"
     pagecolor="#ffffff"
     bordercolor="#666666"
     borderopacity="1.0"
     inkscape:pageshadow="2"
     inkscape:pageopacity="0.0"
     inkscape:pagecheckerboard="0"
     showgrid="false"
     inkscape:zoom="31.375"
     inkscape:cx="14.996016"
     inkscape:cy="12"
     inkscape:window-width="1920"
     inkscape:window-height="1017"
     inkscape:window-x="1272"
     inkscape:window-y="-8"
     inkscape:window-maximized="1"
     inkscape:current-layer="svg1428" />
  <path
     style="color:#000000;fill:#2d2e32;stroke-linecap:round;stroke-linejoin:round;stroke-miterlimit:10;-inkscape-stroke:none"
     d="M 16.597656,0.08398437 A 1.0001,1.0001 0 0 0 16,1 V 7 H 6 A 1.0001,1.0001 0 0 0 5,8 v 8 a 1.0001,1.0001 0 0 0 1,1 h 10 v 6 a 1.0001,1.0001 0 0 0 1.675781,0.736328 l 12,-11 a 1.0001,1.0001 0 0 0 0,-1.472656 l -12,-11.00000012 A 1.0001,1.0001 0 0 0 16.597656,0.08398437 Z M 18,3.2734375 27.521484,12 18,20.726562 V 16 A 1.0001,1.0001 0 0 0 17,15 H 7 V 9 h 10 a 1.0001,1.0001 0 0 0 1,-1 z"
     id="path1424" />
  <path
     style="color:#000000;fill:#0277e7;stroke-linecap:round;stroke-linejoin:round;stroke-miterlimit:10;-inkscape-stroke:none"
     d="M 1,7 A 1,1 0 0 0 0,8 v 8 a 1,1 0 0 0 1,1 1,1 0 0 0 1,-1 V 8 A 1,1 0 0 0 1,7 Z"
     id="path1426" />
</svg>
