<?xml version="1.0" encoding="UTF-8" standalone="no"?>
<svg
   fill="none"
   height="24"
   viewBox="0 0 32 24"
   width="32"
   version="1.1"
   id="svg1469"
   sodipodi:docname="notifier_simple.svg"
   inkscape:version="1.1 (c68e22c387, 2021-05-23)"
   xmlns:inkscape="http://www.inkscape.org/namespaces/inkscape"
   xmlns:sodipodi="http://sodipodi.sourceforge.net/DTD/sodipodi-0.dtd"
   xmlns="http://www.w3.org/2000/svg"
   xmlns:svg="http://www.w3.org/2000/svg">
  <defs
     id="defs1473" />
  <sodipodi:namedview
     id="namedview1471"
     pagecolor="#ffffff"
     bordercolor="#666666"
     borderopacity="1.0"
     inkscape:pageshadow="2"
     inkscape:pageopacity="0.0"
     inkscape:pagecheckerboard="0"
     showgrid="false"
     inkscape:zoom="31.375"
     inkscape:cx="16.015936"
     inkscape:cy="12"
     inkscape:window-width="1920"
     inkscape:window-height="1017"
     inkscape:window-x="1272"
     inkscape:window-y="-8"
     inkscape:window-maximized="1"
     inkscape:current-layer="svg1469" />
  <path
     style="color:#000000;fill:#2d2e32;stroke-linecap:round;stroke-linejoin:round;stroke-miterlimit:10;-inkscape-stroke:none;fill-opacity:1"
     d="m 16,8 c -2.197305,0 -4,1.8026954 -4,4 0,2.197305 1.802695,4 4,4 2.197305,0 4,-1.802695 4,-4 0,-2.1973046 -1.802695,-4 -4,-4 z m 0,2 c 1.116492,0 2,0.883508 2,2 0,1.116492 -0.883508,2 -2,2 -1.116492,0 -2,-0.883508 -2,-2 0,-1.116492 0.883508,-2 2,-2 z"
     id="path1463" />
  <path
     style="color:#000000;fill:#2d2e32;stroke-linecap:round;stroke-linejoin:round;stroke-miterlimit:10;-inkscape-stroke:none;fill-opacity:1"
     d="M 9.6367188,4.6367187 A 1,1 0 0 0 8.9296875,4.9296875 c -3.8968618,3.8968618 -3.8968488,10.2436875 0,14.1406245 a 1,1 0 0 0 1.4140625,0 1,1 0 0 0 0,-1.414062 c -3.1325842,-3.132656 -3.1325712,-8.1799288 0,-11.3125 a 1,1 0 0 0 0,-1.4140625 A 1,1 0 0 0 9.6367188,4.6367187 Z M 21.65625,4.9296875 a 1,1 0 0 0 0,1.4140625 c 3.132552,3.1325701 3.132565,8.179846 0,11.3125 a 1,1 0 0 0 0,1.414062 1,1 0 0 0 1.414062,0 c 3.896828,-3.896938 3.896841,-10.2437616 0,-14.1406245 a 1,1 0 0 0 -1.414062,0 z"
     id="path1465" />
  <path
     style="color:#000000;fill:#2d2e32;stroke-linecap:round;stroke-linejoin:round;stroke-miterlimit:10;-inkscape-stroke:none;fill-opacity:1"
     d="M 5.3925781,0.39257813 A 1,1 0 0 0 4.6855469,0.68554687 c -6.2400081,6.24000173 -6.2400042,16.38691313 0,22.62695313 a 1,1 0 0 0 1.4140625,0 1,1 0 0 0 0,-1.414063 c -5.47571611,-5.475747 -5.47571219,-14.3231211 0,-19.7988276 a 1,1 0 0 0 0,-1.41406253 1,1 0 0 0 -0.7070313,-0.29296874 z m 21.2148439,0 a 1,1 0 0 0 -0.707031,0.29296874 1,1 0 0 0 0,1.41406253 c 5.475745,5.4757076 5.475749,14.3230796 0,19.7988276 a 1,1 0 0 0 0,1.414063 1,1 0 0 0 1.414062,0 c 6.240039,-6.240039 6.240043,-16.3869525 0,-22.62695313 A 1,1 0 0 0 26.607422,0.39257813 Z"
     id="path1467" />
</svg>
