<?xml version="1.0" encoding="UTF-8" standalone="no"?>
<svg
   fill="none"
   height="32"
   viewBox="0 0 32 32"
   width="32"
   version="1.1"
   id="svg1517"
   sodipodi:docname="options_colored.svg"
   inkscape:version="1.1 (c68e22c387, 2021-05-23)"
   xmlns:inkscape="http://www.inkscape.org/namespaces/inkscape"
   xmlns:sodipodi="http://sodipodi.sourceforge.net/DTD/sodipodi-0.dtd"
   xmlns="http://www.w3.org/2000/svg"
   xmlns:svg="http://www.w3.org/2000/svg">
  <defs
     id="defs1521" />
  <sodipodi:namedview
     id="namedview1519"
     pagecolor="#ffffff"
     bordercolor="#666666"
     borderopacity="1.0"
     inkscape:pageshadow="2"
     inkscape:pageopacity="0.0"
     inkscape:pagecheckerboard="0"
     showgrid="false"
     inkscape:zoom="23.53125"
     inkscape:cx="16"
     inkscape:cy="16"
     inkscape:window-width="1920"
     inkscape:window-height="1017"
     inkscape:window-x="1272"
     inkscape:window-y="-8"
     inkscape:window-maximized="1"
     inkscape:current-layer="svg1517" />
  <path
     style="color:#000000;fill:#0277e7;stroke-linecap:round;stroke-linejoin:round;stroke-miterlimit:10;-inkscape-stroke:none"
     d="m 22.771484,17.769531 a 1,1 0 0 0 0,1.414063 l 5.279297,5.279297 c 0.301113,0.300959 0.54005,0.657199 0.703125,1.050781 C 28.916874,25.906918 29,26.329911 29,26.755859 c 0,0.425948 -0.08309,0.84683 -0.246094,1.240235 -0.163075,0.393507 -0.402012,0.751774 -0.703125,1.052734 a 1.0001,1.0001 0 0 0 -0.002,0 c -0.30096,0.301113 -0.657274,0.540049 -1.050781,0.703125 -0.393405,0.163002 -0.814286,0.246094 -1.240235,0.246094 -0.425948,0 -0.848941,-0.08313 -1.242187,-0.246094 -0.393582,-0.163075 -0.749822,-0.402012 -1.050781,-0.703125 l -4.945313,-4.945312 a 1,1 0 0 0 -1.414062,0 1,1 0 0 0 0,1.414062 l 4.943359,4.945313 c 0.48684,0.487086 1.065155,0.873194 1.701172,1.136718 0.636153,0.263633 1.319362,0.398438 2.007812,0.398438 0.688451,0 1.369665,-0.13484 2.00586,-0.398438 0.635892,-0.263524 1.214332,-0.649632 1.701172,-1.136718 0.487086,-0.48684 0.873195,-1.06528 1.136718,-1.701172 C 30.865161,28.125524 31,27.44431 31,26.755859 31,26.067409 30.865195,25.3842 30.601562,24.748047 30.338038,24.11203 29.95193,23.535668 29.464844,23.048828 l -5.279297,-5.279297 a 1,1 0 0 0 -1.414063,0 z"
     id="path1511" />
  <path
     style="color:#000000;fill:#0277e7;stroke-linecap:round;stroke-linejoin:round;stroke-miterlimit:10;-inkscape-stroke:none"
     d="m 4.2929687,2.2910156 -3,3 a 1.0001,1.0001 0 0 0 0,1.4140625 l 9.5000003,9.5019529 a 1,1 0 0 0 1.416015,0 1,1 0 0 0 0,-1.414062 L 3.4140625,5.9980469 5,4.4121094 13.931641,13.34375 a 1,1 0 0 0 1.414062,0 1,1 0 0 0 0,-1.414062 L 5.7070312,2.2910156 a 1.0001,1.0001 0 0 0 -1.4140625,0 z"
     id="path1513" />
  <path
     style="color:#000000;fill:#2d2e32;stroke-linecap:round;stroke-linejoin:round;stroke-miterlimit:10;-inkscape-stroke:none"
     d="M 24.957031,0.01367188 C 24.275464,-0.02887163 23.587905,0.02292296 22.914062,0.16796875 21.56638,0.45805872 20.324713,1.1140441 19.326172,2.0644531 18.327719,3.0148763 17.610153,4.2229679 17.253906,5.5546875 16.956681,6.6661419 16.981828,7.8207661 17.205078,8.9433594 L 0.97851563,23.744141 C 0.67873789,24.017566 0.43747619,24.347735 0.26953125,24.716797 0.10154865,25.085975 0.0092551,25.485171 0,25.890625 c -0.00925213,0.405456 0.06383475,0.809075 0.21484375,1.185547 0.15094316,0.376458 0.37707344,0.719065 0.6640625,1.005859 l 3.03710935,3.03711 c 0.2866729,0.286732 0.6295203,0.513059 1.0058594,0.664062 0.3763725,0.150873 0.7800271,0.224145 1.1855469,0.214844 0.4055901,-0.0092 0.804607,-0.101506 1.1738281,-0.269531 0.3690688,-0.167957 0.7012174,-0.40925 0.9746094,-0.708985 L 23.054687,14.792969 c 1.122856,0.224269 2.278426,0.250103 3.390625,-0.04687 1.332455,-0.355706 2.539373,-1.071325 3.490235,-2.070313 0.950909,-0.998922 1.608869,-2.24145 1.898437,-3.5898435 0.289553,-1.3483411 0.200944,-2.7514113 -0.255859,-4.0527344 a 1.0001,1.0001 0 0 0 -1.650391,-0.375 L 27,7.5839844 24.414062,4.9980469 27.341797,2.0722656 A 1.0001,1.0001 0 0 0 26.964844,0.41992188 c -0.650585,-0.22771743 -1.326246,-0.3637065 -2.007813,-0.40625 z M 23.333984,2.1230469 c 0.353338,-0.076056 0.70424,0.071974 1.0625,0.066406 l -2.103515,2.1015625 a 1.0001,1.0001 0 0 0 0,1.4140625 l 4,4 a 1.0001,1.0001 0 0 0 1.414062,0 l 2.103516,-2.1015625 c -0.0054,0.358357 0.142318,0.7090041 0.06641,1.0625 -0.212231,0.9882643 -0.691782,1.8987834 -1.388672,2.6308594 -0.696936,0.73221 -1.584003,1.256885 -2.560547,1.517578 -0.976644,0.260783 -2.005558,0.246333 -2.974609,-0.04101 a 1.0001,1.0001 0 0 0 -1.023438,0.285156 L 6.7773437,29.671875 c -0.091088,0.09987 -0.201068,0.180285 -0.3242187,0.236328 -0.1229984,0.05597 -0.2555757,0.0868 -0.390625,0.08984 a 1.0001,1.0001 0 0 0 -0.00195,0 C 5.9254272,30.001146 5.7915626,29.976108 5.6660156,29.925781 5.5404152,29.875385 5.427678,29.800745 5.3320312,29.705078 L 2.2929688,26.667969 C 2.1974982,26.572563 2.1226023,26.457573 2.0722656,26.332031 2.0219948,26.206704 1.9969161,26.072644 2,25.9375 c 0.00308,-0.135145 0.033867,-0.269556 0.089844,-0.392578 0.056035,-0.123138 0.1365862,-0.233245 0.2363281,-0.324219 L 18.939453,10.068359 A 1.0001,1.0001 0 0 0 19.224609,9.046875 C 18.938172,8.0777857 18.92447,7.0485448 19.185547,6.0722656 19.446699,5.0960275 19.973133,4.210407 20.705078,3.5136719 21.437135,2.8169025 22.34607,2.3356964 23.333984,2.1230469 Z"
     id="path1515" />
</svg>
