<?xml version="1.0" encoding="UTF-8" standalone="no"?>
<svg
   fill="none"
   height="32"
   viewBox="0 0 32 32"
   width="32"
   version="1.1"
   id="svg1658"
   sodipodi:docname="orders_simple.svg"
   inkscape:version="1.1 (c68e22c387, 2021-05-23)"
   xmlns:inkscape="http://www.inkscape.org/namespaces/inkscape"
   xmlns:sodipodi="http://sodipodi.sourceforge.net/DTD/sodipodi-0.dtd"
   xmlns="http://www.w3.org/2000/svg"
   xmlns:svg="http://www.w3.org/2000/svg">
  <defs
     id="defs1662" />
  <sodipodi:namedview
     id="namedview1660"
     pagecolor="#ffffff"
     bordercolor="#666666"
     borderopacity="1.0"
     inkscape:pageshadow="2"
     inkscape:pageopacity="0.0"
     inkscape:pagecheckerboard="0"
     showgrid="false"
     inkscape:zoom="23.53125"
     inkscape:cx="16"
     inkscape:cy="16"
     inkscape:window-width="1920"
     inkscape:window-height="1017"
     inkscape:window-x="1272"
     inkscape:window-y="-8"
     inkscape:window-maximized="1"
     inkscape:current-layer="svg1658" />
  <path
     style="color:#000000;fill:#2d2e32;stroke-linecap:round;stroke-linejoin:round;stroke-miterlimit:10;-inkscape-stroke:none;fill-opacity:1"
     d="M 16,0.33398438 A 1,1 0 0 0 15,1.3339844 v 4 a 1,1 0 0 0 1,1 1,1 0 0 0 1,-1 v -4 A 1,1 0 0 0 16,0.33398438 Z"
     id="path1646" />
  <path
     style="color:#000000;fill:#2d2e32;stroke-linecap:round;stroke-linejoin:round;stroke-miterlimit:10;-inkscape-stroke:none;fill-opacity:1"
     d="m 9.3339844,3 a 1,1 0 0 0 -1,1 v 4 a 1,1 0 0 0 1,1 1,1 0 0 0 0.9999996,-1 V 4 A 1,1 0 0 0 9.3339844,3 Z"
     id="path1648" />
  <path
     style="color:#000000;fill:#2d2e32;stroke-linecap:round;stroke-linejoin:round;stroke-miterlimit:10;-inkscape-stroke:none;fill-opacity:1"
     d="m 22.666016,3 a 1,1 0 0 0 -1,1 v 4 a 1,1 0 0 0 1,1 1,1 0 0 0 1,-1 V 4 a 1,1 0 0 0 -1,-1 z"
     id="path1650" />
  <path
     style="color:#000000;fill:#2d2e32;stroke-linecap:round;stroke-linejoin:round;stroke-miterlimit:10;-inkscape-stroke:none;fill-opacity:1"
     d="m 1.3339844,29.667969 a 1,1 0 0 0 -1.00000002,1 1,1 0 0 0 1.00000002,1 H 30.400391 a 1,1 0 0 0 1,-1 1,1 0 0 0 -1,-1 z"
     id="path1652" />
  <path
     style="color:#000000;fill:#2d2e32;stroke-linecap:round;stroke-linejoin:round;stroke-miterlimit:10;-inkscape-stroke:none;fill-opacity:1"
     d="m 16,11 c -2.013157,0 -3.666016,1.652796 -3.666016,3.666016 0,2.013156 1.652859,3.667968 3.666016,3.667968 2.01322,0 3.666016,-1.654812 3.666016,-3.667968 C 19.666016,12.652796 18.01322,11 16,11 Z m 0,2 c 0.932377,0 1.666016,0.733638 1.666016,1.666016 0,0.93224 -0.733639,1.667968 -1.666016,1.667968 -0.93224,0 -1.666016,-0.735728 -1.666016,-1.667968 C 14.333984,13.733638 15.06776,13 16,13 Z"
     id="path1654" />
  <path
     style="color:#000000;fill:#2d2e32;stroke-linecap:round;stroke-linejoin:round;stroke-miterlimit:10;-inkscape-stroke:none;fill-opacity:1"
     d="m 16,16.333984 c -7.8787491,0 -14.3339844,6.455236 -14.3339844,14.333985 a 1,1 0 0 0 1,1 1,1 0 0 0 1,-1 c 0,-6.787836 5.5461482,-12.333985 12.3339844,-12.333985 6.787944,0 12.333984,5.546149 12.333984,12.333985 a 1,1 0 0 0 1,1 1,1 0 0 0 1,-1 C 30.333984,22.78922 23.878842,16.333984 16,16.333984 Z"
     id="path1656" />
</svg>
