<?xml version="1.0" encoding="UTF-8" standalone="no"?>
<svg
   fill="none"
   height="24"
   viewBox="0 0 24 24"
   width="24"
   version="1.1"
   id="svg1577"
   sodipodi:docname="order_simple.svg"
   inkscape:version="1.1 (c68e22c387, 2021-05-23)"
   xmlns:inkscape="http://www.inkscape.org/namespaces/inkscape"
   xmlns:sodipodi="http://sodipodi.sourceforge.net/DTD/sodipodi-0.dtd"
   xmlns="http://www.w3.org/2000/svg"
   xmlns:svg="http://www.w3.org/2000/svg">
  <defs
     id="defs1581" />
  <sodipodi:namedview
     id="namedview1579"
     pagecolor="#ffffff"
     bordercolor="#666666"
     borderopacity="1.0"
     inkscape:pageshadow="2"
     inkscape:pageopacity="0.0"
     inkscape:pagecheckerboard="0"
     showgrid="false"
     inkscape:zoom="31.375"
     inkscape:cx="12"
     inkscape:cy="12"
     inkscape:window-width="1920"
     inkscape:window-height="1017"
     inkscape:window-x="1272"
     inkscape:window-y="-8"
     inkscape:window-maximized="1"
     inkscape:current-layer="svg1577" />
  <path
     style="color:#000000;fill:#2d2e32;stroke-linecap:round;stroke-linejoin:round;stroke-miterlimit:10;-inkscape-stroke:none"
     d="m 12,0 a 1,1 0 0 0 -1,1 v 3 a 1,1 0 0 0 1,1 1,1 0 0 0 1,-1 V 1 A 1,1 0 0 0 12,0 Z"
     id="path1565" />
  <path
     style="color:#000000;fill:#2d2e32;stroke-linecap:round;stroke-linejoin:round;stroke-miterlimit:10;-inkscape-stroke:none"
     d="M 7,2 A 1,1 0 0 0 6,3 V 6 A 1,1 0 0 0 7,7 1,1 0 0 0 8,6 V 3 A 1,1 0 0 0 7,2 Z"
     id="path1567" />
  <path
     style="color:#000000;fill:#2d2e32;stroke-linecap:round;stroke-linejoin:round;stroke-miterlimit:10;-inkscape-stroke:none"
     d="m 17,2 a 1,1 0 0 0 -1,1 v 3 a 1,1 0 0 0 1,1 1,1 0 0 0 1,-1 V 3 A 1,1 0 0 0 17,2 Z"
     id="path1569" />
  <path
     style="color:#000000;fill:#2d2e32;stroke-linecap:round;stroke-linejoin:round;stroke-miterlimit:10;-inkscape-stroke:none"
     d="m 1,22 a 1,1 0 0 0 -1,1 1,1 0 0 0 1,1 h 21.800781 a 1,1 0 0 0 1,-1 1,1 0 0 0 -1,-1 z"
     id="path1571" />
  <path
     style="color:#000000;fill:#2d2e32;stroke-linecap:round;stroke-linejoin:round;stroke-miterlimit:10;-inkscape-stroke:none"
     d="m 12,8 c -1.645023,0 -3,1.3550102 -3,3 0,1.645005 1.354995,3 3,3 1.645005,0 3,-1.354995 3,-3 0,-1.6449898 -1.354977,-3 -3,-3 z m 0,2 c 0.564175,0 1,0.435852 1,1 0,0.564193 -0.435807,1 -1,1 -0.564193,0 -1,-0.435807 -1,-1 0,-0.564148 0.435825,-1 1,-1 z"
     id="path1573" />
  <path
     style="color:#000000;fill:#2d2e32;stroke-linecap:round;stroke-linejoin:round;stroke-miterlimit:10;-inkscape-stroke:none"
     d="M 12,12 C 5.9545515,12 1,16.954551 1,23 a 1,1 0 0 0 1,1 1,1 0 0 0 1,-1 c 0,-4.954541 4.0454595,-9 9,-9 4.95454,0 9,4.045459 9,9 a 1,1 0 0 0 1,1 1,1 0 0 0 1,-1 C 23,16.954551 18.045448,12 12,12 Z"
     id="path1575" />
</svg>
