<?xml version="1.0" encoding="UTF-8" standalone="no"?>
<svg
   fill="none"
   height="24"
   viewBox="0 0 30 24"
   width="30"
   version="1.1"
   id="svg258"
   sodipodi:docname="previous_colored.svg"
   inkscape:version="1.1 (c68e22c387, 2021-05-23)"
   xmlns:inkscape="http://www.inkscape.org/namespaces/inkscape"
   xmlns:sodipodi="http://sodipodi.sourceforge.net/DTD/sodipodi-0.dtd"
   xmlns="http://www.w3.org/2000/svg"
   xmlns:svg="http://www.w3.org/2000/svg">
  <defs
     id="defs262" />
  <sodipodi:namedview
     id="namedview260"
     pagecolor="#ffffff"
     bordercolor="#666666"
     borderopacity="1.0"
     inkscape:pageshadow="2"
     inkscape:pageopacity="0.0"
     inkscape:pagecheckerboard="0"
     showgrid="false"
     inkscape:zoom="31.375"
     inkscape:cx="14.996016"
     inkscape:cy="12"
     inkscape:window-width="1920"
     inkscape:window-height="1017"
     inkscape:window-x="1272"
     inkscape:window-y="-8"
     inkscape:window-maximized="1"
     inkscape:current-layer="svg258" />
  <path
     style="color:#000000;fill:#2d2e32;stroke-linecap:round;stroke-linejoin:round;stroke-miterlimit:10;-inkscape-stroke:none"
     d="M 13.402344,0.08398437 A 1.0001,1.0001 0 0 0 12.324219,0.26367188 L 0.32421875,11.263672 a 1.0001,1.0001 0 0 0 0,1.472656 l 12.00000025,11 A 1.0001,1.0001 0 0 0 14,23 v -6 h 10 a 1.0001,1.0001 0 0 0 1,-1 V 8 A 1.0001,1.0001 0 0 0 24,7 H 14 V 1 A 1.0001,1.0001 0 0 0 13.402344,0.08398437 Z M 12,3.2734375 V 8 a 1.0001,1.0001 0 0 0 1,1 h 10 v 6 H 13 a 1.0001,1.0001 0 0 0 -1,1 v 4.726562 L 2.4785156,12 Z"
     id="path254" />
  <path
     style="color:#000000;fill:#0277e7;stroke-linecap:round;stroke-linejoin:round;stroke-miterlimit:10;-inkscape-stroke:none"
     d="m 29,7 a 1,1 0 0 0 -1,1 v 8 a 1,1 0 0 0 1,1 1,1 0 0 0 1,-1 V 8 A 1,1 0 0 0 29,7 Z"
     id="path256" />
</svg>
