<?xml version="1.0" encoding="UTF-8" standalone="no"?>
<svg
   fill="none"
   height="24"
   viewBox="0 0 24 24"
   width="24"
   version="1.1"
   id="svg299"
   sodipodi:docname="printers_simple.svg"
   inkscape:version="1.1 (c68e22c387, 2021-05-23)"
   xmlns:inkscape="http://www.inkscape.org/namespaces/inkscape"
   xmlns:sodipodi="http://sodipodi.sourceforge.net/DTD/sodipodi-0.dtd"
   xmlns="http://www.w3.org/2000/svg"
   xmlns:svg="http://www.w3.org/2000/svg">
  <defs
     id="defs303" />
  <sodipodi:namedview
     id="namedview301"
     pagecolor="#ffffff"
     bordercolor="#666666"
     borderopacity="1.0"
     inkscape:pageshadow="2"
     inkscape:pageopacity="0.0"
     inkscape:pagecheckerboard="0"
     showgrid="false"
     inkscape:zoom="31.375"
     inkscape:cx="12"
     inkscape:cy="12"
     inkscape:window-width="1920"
     inkscape:window-height="1017"
     inkscape:window-x="1272"
     inkscape:window-y="-8"
     inkscape:window-maximized="1"
     inkscape:current-layer="svg299" />
  <path
     style="color:#000000;fill:#2d2e32;stroke-linecap:round;stroke-linejoin:round;stroke-miterlimit:10;-inkscape-stroke:none"
     d="M 6,0 A 1.0001,1.0001 0 0 0 5,1 V 3 A 1,1 0 0 0 6,4 1,1 0 0 0 7,3 V 2 h 10 v 1 a 1,1 0 0 0 1,1 1,1 0 0 0 1,-1 V 1 A 1.0001,1.0001 0 0 0 18,0 Z"
     id="path293" />
  <path
     style="color:#000000;fill:#2d2e32;stroke-linecap:round;stroke-linejoin:round;stroke-miterlimit:10;-inkscape-stroke:none"
     d="M 5,5 C 3.6742984,5 2.4022533,5.5274467 1.4648437,6.4648437 0.52744671,7.4022533 0,8.6742984 0,10 v 8 a 1.0001,1.0001 0 0 0 1,1 H 6 A 1,1 0 0 0 7,18 1,1 0 0 0 6,17 H 2 V 10 C 2,9.2039637 2.3160248,8.4417952 2.8789063,7.8789062 3.4417952,7.3160248 4.2039637,7 5,7 h 14 c 0.796074,0 1.558267,0.3160492 2.121094,0.8789062 C 21.684008,8.4417827 22,9.2039449 22,10 v 7 h -4 a 1,1 0 0 0 -1,1 1,1 0 0 0 1,1 h 5 a 1.0001,1.0001 0 0 0 1,-1 V 10 C 24,8.6743172 23.472641,7.4022658 22.535156,6.4648437 21.597785,5.5274223 20.325724,5 19,5 Z"
     id="path295" />
  <path
     style="color:#000000;fill:#2d2e32;stroke-linecap:round;stroke-linejoin:round;stroke-miterlimit:10;-inkscape-stroke:none"
     d="m 6,13 a 1.0001,1.0001 0 0 0 -1,1 v 9 a 1.0001,1.0001 0 0 0 1,1 h 12 a 1.0001,1.0001 0 0 0 1,-1 v -9 a 1.0001,1.0001 0 0 0 -1,-1 z m 1,2 h 10 v 7 H 7 Z"
     id="path297" />
</svg>
