<?xml version="1.0" encoding="UTF-8" standalone="no"?>
<svg
   fill="none"
   height="32"
   viewBox="0 0 32 32"
   width="32"
   version="1.1"
   id="svg406"
   sodipodi:docname="repeat_colored.svg"
   inkscape:version="1.1 (c68e22c387, 2021-05-23)"
   xmlns:inkscape="http://www.inkscape.org/namespaces/inkscape"
   xmlns:sodipodi="http://sodipodi.sourceforge.net/DTD/sodipodi-0.dtd"
   xmlns="http://www.w3.org/2000/svg"
   xmlns:svg="http://www.w3.org/2000/svg">
  <defs
     id="defs410" />
  <sodipodi:namedview
     id="namedview408"
     pagecolor="#ffffff"
     bordercolor="#666666"
     borderopacity="1.0"
     inkscape:pageshadow="2"
     inkscape:pageopacity="0.0"
     inkscape:pagecheckerboard="0"
     showgrid="false"
     inkscape:zoom="23.53125"
     inkscape:cx="16"
     inkscape:cy="16"
     inkscape:window-width="1920"
     inkscape:window-height="1017"
     inkscape:window-x="1272"
     inkscape:window-y="-8"
     inkscape:window-maximized="1"
     inkscape:current-layer="svg406" />
  <path
     style="color:#000000;fill:#0277e7;stroke-linecap:round;stroke-linejoin:round;stroke-miterlimit:10;-inkscape-stroke:none"
     d="m 4.5,19.998047 c -2.4734355,0 -4.5,2.026564 -4.5,4.5 0,2.473435 2.0265645,4.5 4.5,4.5 2.4734355,0 4.5,-2.026565 4.5,-4.5 0,-2.473436 -2.0265645,-4.5 -4.5,-4.5 z m 0,2 c 1.3925606,0 2.5,1.107439 2.5,2.5 0,1.39256 -1.1074394,2.5 -2.5,2.5 -1.3925606,0 -2.5,-1.10744 -2.5,-2.5 0,-1.392561 1.1074394,-2.5 2.5,-2.5 z"
     id="path400" />
  <path
     style="color:#000000;fill:#2d2e32;stroke-linecap:round;stroke-linejoin:round;stroke-miterlimit:10;-inkscape-stroke:none"
     d="M 16.990234,0.03125 C 13.8715,-0.16283917 10.763127,0.55973237 8.0507813,2.1113281 5.3384511,3.6629225 3.140068,5.9749412 1.7265625,8.7617188 a 1,1 0 0 0 0.4394531,1.3457032 1,1 0 0 0 1.34375,-0.4394532 C 4.7466574,7.2293916 6.6714971,5.205379 9.0449219,3.8476563 11.418391,2.4899149 14.136174,1.8575053 16.865234,2.0273438 c 2.729057,0.1698345 5.348381,1.1338576 7.535157,2.7753906 2.18677,1.6415201 3.844469,3.8877697 4.769531,6.4609376 0.924963,2.573096 1.076672,5.361414 0.435547,8.019531 -0.641126,2.658026 -2.046709,5.069016 -4.042969,6.9375 -1.996262,1.868486 -4.494835,3.112011 -7.189453,3.576172 -2.694605,0.464159 -5.466303,0.129981 -7.972656,-0.962891 a 1,1 0 0 0 -1.3164066,0.515625 1,1 0 0 0 0.515625,1.316407 c 2.8642416,1.248925 6.0319386,1.632002 9.1113276,1.101562 3.079376,-0.530438 5.937417,-1.950627 8.21875,-4.085937 2.281336,-2.135312 3.886468,-4.89212 4.619141,-7.929688 0.732674,-3.037677 0.560941,-6.223564 -0.496094,-9.164062 C 29.995598,7.6473439 28.100587,5.0790413 25.601562,3.203125 23.102543,1.3272015 20.108972,0.2253351 16.990234,0.03125 Z"
     id="path402" />
  <path
     style="color:#000000;fill:#2d2e32;stroke-linecap:round;stroke-linejoin:round;stroke-miterlimit:10;-inkscape-stroke:none"
     d="M 3.7421875,0.22460938 A 1,1 0 0 0 2.625,1.09375 l -1,8 a 1.0001,1.0001 0 0 0 1.1171875,1.115234 L 10.742188,9.2089844 A 1,1 0 0 0 11.609375,8.09375 1,1 0 0 0 10.494141,7.2246094 L 3.7695313,8.0644531 4.609375,1.3417969 A 1,1 0 0 0 3.7421875,0.22460938 Z"
     id="path404" />
</svg>
