<?xml version="1.0" encoding="UTF-8" standalone="no"?>
<svg
   fill="none"
   height="24"
   viewBox="0 0 24 24"
   width="24"
   version="1.1"
   id="svg450"
   sodipodi:docname="reports_simple.svg"
   inkscape:version="1.1 (c68e22c387, 2021-05-23)"
   xmlns:inkscape="http://www.inkscape.org/namespaces/inkscape"
   xmlns:sodipodi="http://sodipodi.sourceforge.net/DTD/sodipodi-0.dtd"
   xmlns="http://www.w3.org/2000/svg"
   xmlns:svg="http://www.w3.org/2000/svg">
  <defs
     id="defs454" />
  <sodipodi:namedview
     id="namedview452"
     pagecolor="#ffffff"
     bordercolor="#666666"
     borderopacity="1.0"
     inkscape:pageshadow="2"
     inkscape:pageopacity="0.0"
     inkscape:pagecheckerboard="0"
     showgrid="false"
     inkscape:zoom="31.375"
     inkscape:cx="12"
     inkscape:cy="12"
     inkscape:window-width="1920"
     inkscape:window-height="1017"
     inkscape:window-x="1272"
     inkscape:window-y="-8"
     inkscape:window-maximized="1"
     inkscape:current-layer="svg450" />
  <path
     style="color:#000000;fill:#2d2e32;stroke-linecap:round;stroke-linejoin:round;stroke-miterlimit:10;-inkscape-stroke:none"
     d="M 10,4 C 4.4886716,4 0,8.4886716 0,14 c 0,5.511328 4.4886716,10 10,10 5.511328,0 10,-4.488672 10,-10 a 1,1 0 0 0 -1,-1 1,1 0 0 0 -1,1 c 0,4.430662 -3.569338,8 -8,8 C 5.5693384,22 2,18.430662 2,14 2,9.5693384 5.5693384,6 10,6 A 1,1 0 0 0 11,5 1,1 0 0 0 10,4 Z"
     id="path446" />
  <path
     style="color:#000000;fill:#2d2e32;stroke-linecap:round;stroke-linejoin:round;stroke-miterlimit:10;-inkscape-stroke:none"
     d="m 14,0 a 1.0001,1.0001 0 0 0 -1,1 v 9 a 1.0001,1.0001 0 0 0 1,1 h 9 a 1.0001,1.0001 0 0 0 1,-1 C 24,4.4886716 19.511328,0 14,0 Z m 1,2.2011719 C 18.58985,2.6670232 21.332977,5.4101498 21.798828,9 H 15 Z"
     id="path448" />
</svg>
