<?xml version="1.0" encoding="UTF-8" standalone="no"?>
<svg
   fill="none"
   height="22"
   viewBox="0 0 22 22"
   width="22"
   version="1.1"
   id="svg491"
   sodipodi:docname="resize_simple.svg"
   inkscape:version="1.1 (c68e22c387, 2021-05-23)"
   xmlns:inkscape="http://www.inkscape.org/namespaces/inkscape"
   xmlns:sodipodi="http://sodipodi.sourceforge.net/DTD/sodipodi-0.dtd"
   xmlns="http://www.w3.org/2000/svg"
   xmlns:svg="http://www.w3.org/2000/svg">
  <defs
     id="defs495" />
  <sodipodi:namedview
     id="namedview493"
     pagecolor="#ffffff"
     bordercolor="#666666"
     borderopacity="1.0"
     inkscape:pageshadow="2"
     inkscape:pageopacity="0.0"
     inkscape:pagecheckerboard="0"
     showgrid="false"
     inkscape:zoom="34.227273"
     inkscape:cx="11"
     inkscape:cy="11"
     inkscape:window-width="1920"
     inkscape:window-height="1017"
     inkscape:window-x="1272"
     inkscape:window-y="-8"
     inkscape:window-maximized="1"
     inkscape:current-layer="svg491" />
  <path
     style="color:#000000;fill:#2d2e32;stroke-linecap:round;stroke-linejoin:round;stroke-miterlimit:10;-inkscape-stroke:none"
     d="M 20.292969,0.29296875 0.29296875,20.292969 a 1,1 0 0 0 0,1.414062 1,1 0 0 0 1.41406245,0 L 21.707031,1.7070312 a 1,1 0 0 0 0,-1.41406245 1,1 0 0 0 -1.414062,0 z"
     id="path485" />
  <path
     style="color:#000000;fill:#2d2e32;stroke-linecap:round;stroke-linejoin:round;stroke-miterlimit:10;-inkscape-stroke:none"
     d="m 13,0 a 1,1 0 0 0 -1,1 1,1 0 0 0 1,1 h 7 v 7 a 1,1 0 0 0 1,1 1,1 0 0 0 1,-1 V 1 A 1.0001,1.0001 0 0 0 21,0 Z"
     id="path487" />
  <path
     style="color:#000000;fill:#2d2e32;stroke-linecap:round;stroke-linejoin:round;stroke-miterlimit:10;-inkscape-stroke:none"
     d="m 1,12 a 1,1 0 0 0 -1,1 v 8 a 1.0001,1.0001 0 0 0 1,1 H 9 A 1,1 0 0 0 10,21 1,1 0 0 0 9,20 H 2 V 13 A 1,1 0 0 0 1,12 Z"
     id="path489" />
</svg>
