<?xml version="1.0" encoding="UTF-8" standalone="no"?>
<svg
   fill="none"
   height="32"
   viewBox="0 0 32 32"
   width="32"
   version="1.1"
   id="svg569"
   sodipodi:docname="search_simple.svg"
   inkscape:version="1.1 (c68e22c387, 2021-05-23)"
   xmlns:inkscape="http://www.inkscape.org/namespaces/inkscape"
   xmlns:sodipodi="http://sodipodi.sourceforge.net/DTD/sodipodi-0.dtd"
   xmlns="http://www.w3.org/2000/svg"
   xmlns:svg="http://www.w3.org/2000/svg">
  <defs
     id="defs573" />
  <sodipodi:namedview
     id="namedview571"
     pagecolor="#ffffff"
     bordercolor="#666666"
     borderopacity="1.0"
     inkscape:pageshadow="2"
     inkscape:pageopacity="0.0"
     inkscape:pagecheckerboard="0"
     showgrid="false"
     inkscape:zoom="23.53125"
     inkscape:cx="16"
     inkscape:cy="16"
     inkscape:window-width="1920"
     inkscape:window-height="1017"
     inkscape:window-x="1272"
     inkscape:window-y="-8"
     inkscape:window-maximized="1"
     inkscape:current-layer="svg569" />
  <path
     style="color:#000000;fill:#2d2e32;stroke-linecap:round;-inkscape-stroke:none;fill-opacity:1"
     d="m 14.1875,9.3125 a 1,1 0 0 0 -1,1 1,1 0 0 0 1,1 h 6.4375 a 1,1 0 0 0 1,-1 1,1 0 0 0 -1,-1 z"
     id="line557" />
  <path
     style="color:#000000;fill:#2d2e32;stroke-linecap:round;-inkscape-stroke:none;fill-opacity:1"
     d="m 14.1875,16.8125 a 1,1 0 0 0 -1,1 1,1 0 0 0 1,1 h 6.4375 a 1,1 0 0 0 1,-1 1,1 0 0 0 -1,-1 z"
     id="line559" />
  <path
     style="color:#000000;fill:#2d2e32;stroke-linecap:round;-inkscape-stroke:none;fill-opacity:1"
     d="m 24.832031,17.023437 a 1,1 0 0 0 -1,1 1,1 0 0 0 1,1 h 5.378906 a 1,1 0 0 0 1,-1 1,1 0 0 0 -1,-1 z"
     id="path561" />
  <path
     style="color:#000000;fill:#2d2e32;stroke-linecap:round;-inkscape-stroke:none;fill-opacity:1"
     d="m 10.375,13.125 a 1,1 0 0 0 -1,1 1,1 0 0 0 1,1 h 10.78125 a 1,1 0 0 0 1,-1 1,1 0 0 0 -1,-1 z"
     id="path563" />
  <path
     style="color:#000000;fill:#2d2e32;stroke-linecap:round;stroke-linejoin:round;stroke-miterlimit:10;-inkscape-stroke:none;fill-opacity:1"
     d="m 21.482422,21.482422 a 1,1 0 0 0 0,1.416015 l 8.810547,8.808594 a 1,1 0 0 0 1.414062,0 1,1 0 0 0 0,-1.414062 l -8.810547,-8.810547 a 1,1 0 0 0 -1.414062,0 z"
     id="path565" />
  <path
     style="color:#000000;fill:#2d2e32;stroke-linecap:square;stroke-linejoin:round;stroke-miterlimit:10;-inkscape-stroke:none;fill-opacity:1"
     d="M 13.1875,0 C 5.9160971,0 0,5.9160971 0,13.1875 0,20.458931 5.9161001,26.375 13.1875,26.375 20.458928,26.375 26.375,20.458928 26.375,13.1875 26.375,5.9161001 20.458931,0 13.1875,0 Z m 0,2 C 19.378056,2 24.375,6.9969734 24.375,13.1875 24.375,19.378059 19.378059,24.375 13.1875,24.375 6.9969734,24.375 2,19.378056 2,13.1875 2,6.9969764 6.9969764,2 13.1875,2 Z"
     id="path567" />
</svg>
