<?xml version="1.0" encoding="UTF-8" standalone="no"?>
<svg
   fill="none"
   height="22"
   viewBox="0 0 30 22"
   width="30"
   version="1.1"
   id="svg704"
   sodipodi:docname="seat_preview_colored.svg"
   inkscape:version="1.1 (c68e22c387, 2021-05-23)"
   xmlns:inkscape="http://www.inkscape.org/namespaces/inkscape"
   xmlns:sodipodi="http://sodipodi.sourceforge.net/DTD/sodipodi-0.dtd"
   xmlns="http://www.w3.org/2000/svg"
   xmlns:svg="http://www.w3.org/2000/svg">
  <defs
     id="defs708" />
  <sodipodi:namedview
     id="namedview706"
     pagecolor="#ffffff"
     bordercolor="#666666"
     borderopacity="1.0"
     inkscape:pageshadow="2"
     inkscape:pageopacity="0.0"
     inkscape:pagecheckerboard="0"
     showgrid="false"
     inkscape:zoom="34.227273"
     inkscape:cx="15.002656"
     inkscape:cy="11"
     inkscape:window-width="1920"
     inkscape:window-height="1017"
     inkscape:window-x="1272"
     inkscape:window-y="-8"
     inkscape:window-maximized="1"
     inkscape:current-layer="svg704" />
  <path
     style="color:#000000;fill:#2d2e32;stroke-linecap:round;stroke-linejoin:round;stroke-miterlimit:10;-inkscape-stroke:none"
     d="M 15,0 C 7.9331102,0 2.9393368,6.0566886 0.90039063,8.9433594 a 1.0001,1.0001 0 0 0 -0.003906,0.00391 C 0.4758049,9.548712 0.25,10.266061 0.25,11 c 0,0.733939 0.2258256,1.451318 0.64648438,2.052734 a 1.0001,1.0001 0 0 0 0.003906,0.002 C 2.9393422,15.941418 7.9331102,22 15,22 c 7.066817,0 12.062647,-6.05856 14.101562,-8.945312 a 1.0001,1.0001 0 0 0 0.002,-0.002 C 29.52411,12.45139 29.75,11.73404 29.75,11 c 0,-0.73404 -0.225869,-1.4513603 -0.646484,-2.0527344 a 1.0001,1.0001 0 0 0 -0.002,-0.00391 C 27.062652,6.056666 22.066817,0 15,0 Z m 0,2 C 20.884254,2 25.570532,7.4142784 27.464844,10.095703 27.649926,10.361004 27.75,10.676677 27.75,11 c 0,0.323323 -0.100053,0.638966 -0.285156,0.904297 C 25.570537,14.585762 20.884254,20 15,20 9.1163887,20 4.4299843,14.588083 2.5351563,11.90625 c -3.643e-4,-5.21e-4 3.636e-4,-0.0014 0,-0.002 -4.236e-4,-6e-4 -0.00153,-0.0014 -0.00195,-0.002 C 2.3490654,11.637513 2.25,11.322589 2.25,11 c 0,-0.322589 0.099086,-0.637542 0.2832031,-0.902344 l 0.00195,-0.002 C 4.4295317,7.414256 9.1156583,2 15,2 Z"
     id="path700" />
  <path
     style="color:#000000;fill:#0277e7;stroke-linecap:round;stroke-linejoin:round;stroke-miterlimit:10;-inkscape-stroke:none"
     d="m 15,5 c -3.301842,0 -6,2.6981367 -6,6 0,3.301847 2.698153,6 6,6 3.301847,0 6,-2.698153 6,-6 0,-3.3018633 -2.698158,-6 -6,-6 z m 0,2 c 2.220952,0 4,1.7790288 4,4 0,2.220947 -1.779053,4 -4,4 -2.220947,0 -4,-1.779053 -4,-4 0,-2.2209712 1.779048,-4 4,-4 z"
     id="path702" />
</svg>
