<?xml version="1.0" encoding="UTF-8" standalone="no"?>
<svg
   fill="none"
   height="23"
   viewBox="0 0 24 23"
   width="24"
   version="1.1"
   id="svg741"
   sodipodi:docname="stock_simple.svg"
   inkscape:version="1.1 (c68e22c387, 2021-05-23)"
   xmlns:inkscape="http://www.inkscape.org/namespaces/inkscape"
   xmlns:sodipodi="http://sodipodi.sourceforge.net/DTD/sodipodi-0.dtd"
   xmlns="http://www.w3.org/2000/svg"
   xmlns:svg="http://www.w3.org/2000/svg">
  <defs
     id="defs745" />
  <sodipodi:namedview
     id="namedview743"
     pagecolor="#ffffff"
     bordercolor="#666666"
     borderopacity="1.0"
     inkscape:pageshadow="2"
     inkscape:pageopacity="0.0"
     inkscape:pagecheckerboard="0"
     showgrid="false"
     inkscape:zoom="32.73913"
     inkscape:cx="11.988712"
     inkscape:cy="11.5"
     inkscape:window-width="1920"
     inkscape:window-height="1017"
     inkscape:window-x="1272"
     inkscape:window-y="-8"
     inkscape:window-maximized="1"
     inkscape:current-layer="svg741" />
  <path
     style="color:#000000;fill:#2d2e32;stroke-linecap:round;stroke-linejoin:round;stroke-miterlimit:10;-inkscape-stroke:none"
     d="M 3,6 A 1.0001,1.0001 0 0 0 2,7 v 15 a 1.0001,1.0001 0 0 0 1,1 h 18 a 1.0001,1.0001 0 0 0 1,-1 V 7 A 1.0001,1.0001 0 0 0 21,6 Z M 4,8 H 20 V 21 H 4 Z"
     id="path737" />
  <path
     style="color:#000000;fill:#2d2e32;stroke-linecap:round;stroke-linejoin:round;stroke-miterlimit:10;-inkscape-stroke:none"
     d="M 1,0 A 1.0001,1.0001 0 0 0 0,1 V 7 A 1.0001,1.0001 0 0 0 1,8 H 23 A 1.0001,1.0001 0 0 0 24,7 V 1 A 1.0001,1.0001 0 0 0 23,0 Z M 2,2 H 22 V 6 H 2 Z"
     id="path739" />
</svg>
