<?xml version="1.0" encoding="UTF-8" standalone="no"?>
<svg
   fill="none"
   height="32"
   viewBox="0 0 30 32"
   width="30"
   version="1.1"
   id="svg806"
   sodipodi:docname="supplements_simple.svg"
   inkscape:version="1.1 (c68e22c387, 2021-05-23)"
   xmlns:inkscape="http://www.inkscape.org/namespaces/inkscape"
   xmlns:sodipodi="http://sodipodi.sourceforge.net/DTD/sodipodi-0.dtd"
   xmlns="http://www.w3.org/2000/svg"
   xmlns:svg="http://www.w3.org/2000/svg">
  <defs
     id="defs810" />
  <sodipodi:namedview
     id="namedview808"
     pagecolor="#ffffff"
     bordercolor="#666666"
     borderopacity="1.0"
     inkscape:pageshadow="2"
     inkscape:pageopacity="0.0"
     inkscape:pagecheckerboard="0"
     showgrid="false"
     inkscape:zoom="23.53125"
     inkscape:cx="14.98008"
     inkscape:cy="16"
     inkscape:window-width="1920"
     inkscape:window-height="1017"
     inkscape:window-x="1272"
     inkscape:window-y="-8"
     inkscape:window-maximized="1"
     inkscape:current-layer="svg806" />
  <path
     style="color:#000000;fill:#2d2e32;stroke-linecap:round;stroke-linejoin:round;-inkscape-stroke:none;fill-opacity:1"
     d="M 1,8 A 1.0001,1.0001 0 0 0 0.01171875,9.1484375 L 3.0117188,29.148437 A 1.0001,1.0001 0 0 0 4,30 h 10 a 1,1 0 0 0 1,-1 1,1 0 0 0 -1,-1 H 4.8613281 L 2.1601563,10 H 21.847656 l -0.83789,5.859375 a 1,1 0 0 0 0.849609,1.130859 1,1 0 0 0 1.130859,-0.849609 l 1,-7 A 1.0001,1.0001 0 0 0 23,8 Z"
     id="path788" />
  <path
     style="color:#000000;fill:#2d2e32;stroke-linecap:round;stroke-linejoin:round;-inkscape-stroke:none;fill-opacity:1"
     d="m 12,0 a 1,1 0 0 0 -1,1 v 8 a 1,1 0 0 0 1,1 1,1 0 0 0 1,-1 V 1 A 1,1 0 0 0 12,0 Z"
     id="path790" />
  <path
     style="color:#000000;fill:#2d2e32;stroke-linecap:round;stroke-linejoin:round;-inkscape-stroke:none;fill-opacity:1"
     d="M 17.140625,1.0097656 A 1,1 0 0 0 16.009766,1.859375 l -1,7 a 1,1 0 0 0 0.849609,1.1308594 1,1 0 0 0 1.130859,-0.8496094 l 1,-7 A 1,1 0 0 0 17.140625,1.0097656 Z"
     id="path792" />
  <path
     style="color:#000000;fill:#2d2e32;stroke-linecap:round;stroke-linejoin:round;-inkscape-stroke:none;fill-opacity:1"
     d="m 22.371094,3.0722656 a 1,1 0 0 0 -1.298828,0.5566407 l -2,5 a 1,1 0 0 0 0.55664,1.2988281 1,1 0 0 0 1.298828,-0.5566406 l 2,-5.0000001 a 1,1 0 0 0 -0.55664,-1.2988281 z"
     id="path794" />
  <path
     style="color:#000000;fill:#2d2e32;stroke-linecap:round;stroke-linejoin:round;-inkscape-stroke:none;fill-opacity:1"
     d="M 6.859375,1.0097656 A 1,1 0 0 0 6.0097656,2.140625 l 1,7 A 1,1 0 0 0 8.140625,9.9902344 1,1 0 0 0 8.9902344,8.859375 l -1,-7 A 1,1 0 0 0 6.859375,1.0097656 Z"
     id="path796" />
  <path
     style="color:#000000;fill:#2d2e32;stroke-linecap:round;stroke-linejoin:round;-inkscape-stroke:none;fill-opacity:1"
     d="M 1.6289062,3.0722656 A 1,1 0 0 0 1.0722656,4.3710937 l 2,5.0000001 A 1,1 0 0 0 4.3710937,9.9277344 1,1 0 0 0 4.9277344,8.6289063 l -2,-5 A 1,1 0 0 0 1.6289062,3.0722656 Z"
     id="path798" />
  <path
     style="color:#000000;fill:#2d2e32;stroke-linecap:round;stroke-linejoin:round;stroke-miterlimit:10;-inkscape-stroke:none;fill-opacity:1"
     d="m 23,18 c -3.854139,0 -7,3.145861 -7,7 0,3.854139 3.145861,7 7,7 3.854139,0 7,-3.145861 7,-7 0,-3.854139 -3.145861,-7 -7,-7 z m 0,2 c 2.773254,0 5,2.226746 5,5 0,2.773254 -2.226746,5 -5,5 -2.773254,0 -5,-2.226746 -5,-5 0,-2.773254 2.226746,-5 5,-5 z"
     id="path800" />
  <path
     style="color:#000000;fill:#2d2e32;stroke-linecap:round;stroke-linejoin:round;stroke-miterlimit:10;-inkscape-stroke:none;fill-opacity:1"
     d="m 23,21.427734 a 1,1 0 0 0 -1,1 V 25 a 1.0001,1.0001 0 0 0 1,1 h 2.572266 a 1,1 0 0 0 1,-1 1,1 0 0 0 -1,-1 H 24 v -1.572266 a 1,1 0 0 0 -1,-1 z"
     id="path802" />
  <path
     style="color:#000000;fill:#2d2e32;stroke-linecap:round;stroke-linejoin:round;stroke-miterlimit:10;-inkscape-stroke:none;fill-opacity:1"
     d="m 20.427734,24 a 1,1 0 0 0 -1,1 1,1 0 0 0 1,1 H 22 v 1.572266 a 1,1 0 0 0 1,1 1,1 0 0 0 1,-1 V 25 a 1.0001,1.0001 0 0 0 -1,-1 z"
     id="path804" />
</svg>
