<?xml version="1.0" encoding="UTF-8" standalone="no"?>
<svg
   fill="none"
   height="24"
   viewBox="0 0 24 24"
   width="24"
   version="1.1"
   id="svg969"
   sodipodi:docname="trash_simple.svg"
   inkscape:version="1.1 (c68e22c387, 2021-05-23)"
   xmlns:inkscape="http://www.inkscape.org/namespaces/inkscape"
   xmlns:sodipodi="http://sodipodi.sourceforge.net/DTD/sodipodi-0.dtd"
   xmlns="http://www.w3.org/2000/svg"
   xmlns:svg="http://www.w3.org/2000/svg">
  <defs
     id="defs973" />
  <sodipodi:namedview
     id="namedview971"
     pagecolor="#ffffff"
     bordercolor="#666666"
     borderopacity="1.0"
     inkscape:pageshadow="2"
     inkscape:pageopacity="0.0"
     inkscape:pagecheckerboard="0"
     showgrid="false"
     inkscape:zoom="31.375"
     inkscape:cx="12"
     inkscape:cy="12"
     inkscape:window-width="1920"
     inkscape:window-height="1017"
     inkscape:window-x="1272"
     inkscape:window-y="-8"
     inkscape:window-maximized="1"
     inkscape:current-layer="svg969" />
  <path
     style="color:#000000;fill:#2d2e32;stroke-linecap:round;stroke-linejoin:round;-inkscape-stroke:none"
     d="m 8.5,0.5 a 1.0001,1.0001 0 0 0 -1,1 v 3.1992187 h -6 a 1,1 0 0 0 -1,1 1,1 0 0 0 1,1 h 7 7 7 a 1,1 0 0 0 1,-1 1,1 0 0 0 -1,-1 h -6 V 1.5 a 1.0001,1.0001 0 0 0 -1,-1 z m 1,2 h 5 v 2.1992187 h -5 z M 4.1875,9.0058594 A 1,1 0 0 0 3.3066406,10.113281 l 1.2089844,10.59375 c 0.076323,0.764556 0.4342848,1.47445 1.0039062,1.990235 0.5695984,0.515777 1.3117544,0.802439 2.0800782,0.802734 h 8.8007816 c 0.768323,-2.95e-4 1.510478,-0.286862 2.080078,-0.802734 0.569633,-0.51577 0.927606,-1.225615 1.003906,-1.990235 l 1.208984,-10.59375 A 1,1 0 0 0 19.8125,9.0058594 1,1 0 0 0 18.707031,9.8867188 L 17.496094,20.496094 a 1.0001,1.0001 0 0 0 -0.002,0.01367 c -0.0271,0.271579 -0.153104,0.521848 -0.355469,0.705078 a 1.0001,1.0001 0 0 0 -0.002,0 C 16.93452,21.39797 16.673466,21.499895 16.400391,21.5 H 7.5996094 C 7.3265341,21.499895 7.063669,21.398066 6.8613281,21.214844 6.6589904,21.031629 6.5329766,20.781409 6.5058594,20.509766 a 1.0001,1.0001 0 0 0 -0.00195,-0.01367 L 5.2929687,9.8867188 A 1,1 0 0 0 4.1875,9.0058594 Z"
     id="path967" />
</svg>
