<?xml version="1.0" encoding="UTF-8" standalone="no"?>
<svg
   fill="none"
   height="32"
   viewBox="0 0 30 32"
   width="30"
   version="1.1"
   id="svg1015"
   sodipodi:docname="void_colored.svg"
   inkscape:version="1.1 (c68e22c387, 2021-05-23)"
   xmlns:inkscape="http://www.inkscape.org/namespaces/inkscape"
   xmlns:sodipodi="http://sodipodi.sourceforge.net/DTD/sodipodi-0.dtd"
   xmlns="http://www.w3.org/2000/svg"
   xmlns:svg="http://www.w3.org/2000/svg">
  <defs
     id="defs1019" />
  <sodipodi:namedview
     id="namedview1017"
     pagecolor="#ffffff"
     bordercolor="#666666"
     borderopacity="1.0"
     inkscape:pageshadow="2"
     inkscape:pageopacity="0.0"
     inkscape:pagecheckerboard="0"
     showgrid="false"
     inkscape:zoom="23.53125"
     inkscape:cx="14.98008"
     inkscape:cy="16"
     inkscape:window-width="1920"
     inkscape:window-height="1017"
     inkscape:window-x="1272"
     inkscape:window-y="-8"
     inkscape:window-maximized="1"
     inkscape:current-layer="svg1015" />
  <path
     style="color:#000000;fill:#2d2e32;stroke-linecap:round;stroke-linejoin:round;stroke-miterlimit:10;-inkscape-stroke:none"
     d="m 4,9 a 1,1 0 0 0 -1,1 v 18 c 0,1.060447 0.4219777,2.078241 1.171875,2.828125 C 4.9217349,31.577972 5.9394942,32 7,32 h 16 c 1.060472,0 2.078254,-0.422004 2.828125,-1.171875 C 26.577996,30.078254 27,29.060472 27,28 V 10 a 1,1 0 0 0 -1,-1 1,1 0 0 0 -1,1 v 18 c 0,0.530726 -0.210609,1.038734 -0.585938,1.414062 C 24.038734,29.789391 23.530726,30 23,30 H 7 C 6.4692074,30 5.9612965,29.789415 5.5859375,29.414062 5.2106159,29.038748 5,28.530751 5,28 V 10 A 1,1 0 0 0 4,9 Z"
     id="path1003" />
  <path
     style="color:#000000;fill:#0277e7;stroke-linecap:round;stroke-linejoin:round;stroke-miterlimit:10;-inkscape-stroke:none"
     d="m 15,14 a 1,1 0 0 0 -1,1 v 10 a 1,1 0 0 0 1,1 1,1 0 0 0 1,-1 V 15 a 1,1 0 0 0 -1,-1 z"
     id="path1005" />
  <path
     style="color:#000000;fill:#0277e7;stroke-linecap:round;stroke-linejoin:round;stroke-miterlimit:10;-inkscape-stroke:none"
     d="m 10,14 a 1,1 0 0 0 -1,1 v 10 a 1,1 0 0 0 1,1 1,1 0 0 0 1,-1 V 15 a 1,1 0 0 0 -1,-1 z"
     id="path1007" />
  <path
     style="color:#000000;fill:#0277e7;stroke-linecap:round;stroke-linejoin:round;stroke-miterlimit:10;-inkscape-stroke:none"
     d="m 20,14 a 1,1 0 0 0 -1,1 v 10 a 1,1 0 0 0 1,1 1,1 0 0 0 1,-1 V 15 a 1,1 0 0 0 -1,-1 z"
     id="path1009" />
  <path
     style="color:#000000;fill:#2d2e32;stroke-linecap:round;stroke-linejoin:round;stroke-miterlimit:10;-inkscape-stroke:none"
     d="M 10,0 A 1.0001,1.0001 0 0 0 9,1 v 5 a 1,1 0 0 0 1,1 1,1 0 0 0 1,-1 V 2 h 8 v 4 a 1,1 0 0 0 1,1 1,1 0 0 0 1,-1 V 1 A 1.0001,1.0001 0 0 0 20,0 Z"
     id="path1011" />
  <path
     style="color:#000000;fill:#2d2e32;stroke-linecap:round;stroke-linejoin:round;stroke-miterlimit:10;-inkscape-stroke:none"
     d="M 1,5 A 1,1 0 0 0 0,6 1,1 0 0 0 1,7 H 29 A 1,1 0 0 0 30,6 1,1 0 0 0 29,5 Z"
     id="path1013" />
</svg>
