<?xml version="1.0" encoding="UTF-8" standalone="no"?>
<svg
   fill="none"
   height="24"
   viewBox="0 0 32 24"
   width="32"
   version="1.1"
   id="svg1084"
   sodipodi:docname="voucher_colored.svg"
   inkscape:version="1.1 (c68e22c387, 2021-05-23)"
   xmlns:inkscape="http://www.inkscape.org/namespaces/inkscape"
   xmlns:sodipodi="http://sodipodi.sourceforge.net/DTD/sodipodi-0.dtd"
   xmlns="http://www.w3.org/2000/svg"
   xmlns:svg="http://www.w3.org/2000/svg">
  <defs
     id="defs1088" />
  <sodipodi:namedview
     id="namedview1086"
     pagecolor="#ffffff"
     bordercolor="#666666"
     borderopacity="1.0"
     inkscape:pageshadow="2"
     inkscape:pageopacity="0.0"
     inkscape:pagecheckerboard="0"
     showgrid="false"
     inkscape:zoom="31.375"
     inkscape:cx="15.984064"
     inkscape:cy="12"
     inkscape:window-width="1920"
     inkscape:window-height="1017"
     inkscape:window-x="1272"
     inkscape:window-y="-8"
     inkscape:window-maximized="1"
     inkscape:current-layer="svg1084" />
  <path
     style="color:#000000;fill:#0277e7;stroke-linecap:round;stroke-linejoin:round;stroke-miterlimit:10;-inkscape-stroke:none"
     d="m 10,8 a 1,1 0 0 0 -1,1 1,1 0 0 0 1,1 H 22 A 1,1 0 0 0 23,9 1,1 0 0 0 22,8 Z"
     id="path1078" />
  <path
     style="color:#000000;fill:#0277e7;stroke-linecap:round;stroke-linejoin:round;stroke-miterlimit:10;-inkscape-stroke:none"
     d="m 10,14 a 1,1 0 0 0 -1,1 1,1 0 0 0 1,1 h 12 a 1,1 0 0 0 1,-1 1,1 0 0 0 -1,-1 z"
     id="path1080" />
  <path
     style="color:#000000;fill:#2d2e32;stroke-linecap:round;stroke-linejoin:round;stroke-miterlimit:10;-inkscape-stroke:none"
     d="M 1,0 A 1.0001,1.0001 0 0 0 0,1 v 7 a 1.0001,1.0001 0 0 0 1,1 c 1.6684823,0 3,1.331518 3,3 0,1.668482 -1.3315177,3 -3,3 a 1.0001,1.0001 0 0 0 -1,1 v 7 a 1.0001,1.0001 0 0 0 1,1 h 30 a 1.0001,1.0001 0 0 0 1,-1 v -7 a 1.0001,1.0001 0 0 0 -1,-1 c -1.668482,0 -3,-1.331518 -3,-3 0,-1.668482 1.331518,-3 3,-3 A 1.0001,1.0001 0 0 0 32,8 V 1 A 1.0001,1.0001 0 0 0 31,0 Z M 2,2 H 30 V 7.203125 C 27.741816,7.6827789 26,9.6045422 26,12 c 0,2.395458 1.741816,4.317221 4,4.796875 V 22 H 2 V 16.796875 C 4.2581842,16.317221 6,14.395458 6,12 6,9.6045422 4.2581842,7.6827789 2,7.203125 Z"
     id="path1082" />
</svg>
